<svg width="5200" height="3600" version="1.2" xmlns="http://www.w3.org/2000/svg">
<g fill="none" stroke="#000" stroke-width=".666667">
<circle cx="485.52368" cy="267.36136" r="89.585968"/>
<circle cx="403.19858" cy="171.20601" r="55.089333"/>
<circle cx="396.95993" cy="123.30041" r="91.474884"/>
<circle cx="316.47638" cy="274.26218" r="91.589729"/>
</g>
<g fill="none" stroke="#000" stroke-width=".666667">
<circle cx="750.7735" cy="184.71297" r="125.89445"/>
<circle cx="870.14709" cy="226.41635" r="51.029129"/>
<circle cx="848.56561" cy="214.44511" r="126.321"/>
<circle cx="728.2002" cy="173.31828" r="50.695141"/>
</g>
<g fill="none" stroke="#000" stroke-width=".666667">
<circle cx="1285.4965" cy="275.15985" r="89.276665"/>
<circle cx="1198.8898" cy="255.91122" r="47.329021"/>
<circle cx="1112.8574" cy="273.34021" r="88.169952"/>
<circle cx="1199.6556" cy="124.04977" r="89.356293"/>
</g>
<g fill="none" stroke="#000" stroke-width=".666667">
<circle cx="1591.4639" cy="119.24269" r="94.543373"/>
<circle cx="1516.7444" cy="218.63602" r="91.916931"/>
<circle cx="1576.6753" cy="240.91429" r="33.785519"/>
<circle cx="1680.4249" cy="279.43158" r="94.451881"/>
</g>
<g fill="none" stroke="#000" stroke-width=".666667">
<circle cx="2069.467" cy="208.52231" r="105.72099"/>
<circle cx="1992.725" cy="199.27322" r="91.166115"/>
<circle cx="1914.0613" cy="189.82318" r="89.180176"/>
<circle cx="1992.7291" cy="199.47972" r="129.5923"/>
</g>
<g fill="none" stroke="#000" stroke-width=".666667">
<circle cx="2394.1187" cy="148.14018" r="112.20038"/>
<circle cx="2454.6235" cy="242.85315" r="60.446301"/>
<circle cx="2340.0679" cy="247.78609" r="115.11084"/>
<circle cx="2454.1125" cy="243.10103" r="120.94922"/>
</g>
<g fill="none" stroke="#000" stroke-width=".666667">
<circle cx="2801.2747" cy="217.14992" r="53.680256"/>
<circle cx="2831.8538" cy="185.34232" r="84.282928"/>
<circle cx="2855.3147" cy="138.43777" r="113.48813"/>
<circle cx="2743.2632" cy="261.71222" r="113.34244"/>
</g>
<g fill="none" stroke="#000" stroke-width=".666667">
<circle cx="3112.7725" cy="251.2861" r="62.804825"/>
<circle cx="3166.8162" cy="131.5074" r="106.51921"/>
<circle cx="3198.7388" cy="177.57567" r="55.388081"/>
<circle cx="3253.9438" cy="280.34238" r="94.76683"/>
</g>
<g fill="none" stroke="#000" stroke-width=".666667">
<circle cx="3515.4126" cy="273.93881" r="90.634315"/>
<circle cx="3684.532" cy="268.82178" r="90.324005"/>
<circle cx="3600.0054" cy="252.11784" r="25.648277"/>
<circle cx="3595.9165" cy="124.50243" r="90.590698"/>
</g>
<g fill="none" stroke="#000" stroke-width=".666667">
<circle cx="4031.5618" cy="257.18549" r="117.80342"/>
<circle cx="3967.2761" cy="142.2831" r="117.38194"/>
<circle cx="3989.0759" cy="205.03941" r="73.504784"/>
<circle cx="3982.9062" cy="208.95518" r="103.46648"/>
</g>
<g fill="none" stroke="#000" stroke-width=".666667">
<circle cx="4432.7661" cy="133.89026" r="109.01151"/>
<circle cx="4374.5381" cy="226.46156" r="131.55138"/>
<circle cx="4398.7256" cy="237.45206" r="52.24358"/>
<circle cx="4424.2632" cy="243.47113" r="131.57686"/>
</g>
<g fill="none" stroke="#000" stroke-width=".666667">
<circle cx="4727.873" cy="218.01576" r="103.02703"/>
<circle cx="4820.7334" cy="153.11967" r="128.28249"/>
<circle cx="4877.3442" cy="212.29532" r="72.087662"/>
<circle cx="4813.1963" cy="212.05775" r="161.72124"/>
</g>
<g fill="none" stroke="#000" stroke-width=".666667">
<circle cx="128.19638" cy="649.72095" r="73.091705"/>
<circle cx="211.15657" cy="581.23816" r="101.79014"/>
<circle cx="100.62989" cy="583.67334" r="75.669273"/>
<circle cx="307.1734" cy="543.89478" r="68.003708"/>
</g>
<g fill="none" stroke="#000" stroke-width=".666667">
<circle cx="538.91144" cy="625.45374" r="113.91404"/>
<circle cx="660.84552" cy="588.71753" r="114.31702"/>
<circle cx="599.64423" cy="607.1731" r="78.969482"/>
<circle cx="573.77643" cy="545.8783" r="87.044044"/>
</g>
<g fill="none" stroke="#000" stroke-width=".666667">
<circle cx="939.95404" cy="648.73218" r="115.08067"/>
<circle cx="1031.6698" cy="578.44073" r="95.245872"/>
<circle cx="1031.4995" cy="578.06921" r="47.730003"/>
<circle cx="1031.8876" cy="577.95288" r="142.9903"/>
</g>
<g fill="none" stroke="#000" stroke-width=".666667">
<circle cx="1400.4829" cy="622.67004" r="16.579388"/>
<circle cx="1402.5222" cy="523.25146" r="89.566849"/>
<circle cx="1485.6169" cy="674.7312" r="89.644562"/>
<circle cx="1313.8627" cy="670.62335" r="88.865326"/>
</g>
<g fill="none" stroke="#000" stroke-width=".666667">
<circle cx="1826.7435" cy="513.50214" r="81.674927"/>
<circle cx="1811.8561" cy="535.63531" r="91.178345"/>
<circle cx="1884.4205" cy="663.00031" r="90.476196"/>
<circle cx="1715.5129" cy="675.81567" r="90.708664"/>
</g>
<g fill="none" stroke="#000" stroke-width=".666667">
<circle cx="2125.3372" cy="654.85101" r="100.29333"/>
<circle cx="2177.5081" cy="670.82751" r="100.28075"/>
<circle cx="2275.0205" cy="527.9173" r="100.21877"/>
<circle cx="2240.6433" cy="620.96509" r="24.13843"/>
</g>
<g fill="none" stroke="#000" stroke-width=".666667">
<circle cx="2662.1416" cy="602.20062" r="112.85532"/>
<circle cx="2599.095" cy="618.40363" r="65.450531"/>
<circle cx="2537.7859" cy="595.8717" r="113.03432"/>
<circle cx="2602.4346" cy="553.48053" r="18.080309"/>
</g>
<g fill="none" stroke="#000" stroke-width=".666667">
<circle cx="2950.5254" cy="523.75549" r="99.060783"/>
<circle cx="3048.4858" cy="675.82666" r="99.163429"/>
<circle cx="3039.7788" cy="608.0249" r="27.25131"/>
<circle cx="2993.2778" cy="620.26129" r="24.383101"/>
</g>
<g fill="none" stroke="#000" stroke-width=".666667">
<circle cx="3294.9749" cy="583.04413" r="70.033432"/>
<circle cx="3337.3906" cy="591.16339" r="78.223442"/>
<circle cx="3406.2405" cy="603.76123" r="78.065781"/>
<circle cx="3511.5242" cy="621.55896" r="63.627106"/>
</g>
<g fill="none" stroke="#000" stroke-width=".666667">
<circle cx="3718.6582" cy="598.82593" r="93.7677"/>
<circle cx="3854.0024" cy="600.08667" r="121.09476"/>
<circle cx="3849.6423" cy="599.12811" r="76.400703"/>
<circle cx="3781.3943" cy="598.94684" r="107.90791"/>
</g>
<g fill="none" stroke="#000" stroke-width=".666667">
<circle cx="4126.3271" cy="650.81647" r="86.592735"/>
<circle cx="4213.686" cy="627.77307" r="100.99415"/>
<circle cx="4243.5864" cy="525.94336" r="101.04653"/>
<circle cx="4274.4155" cy="691.45306" r="83.65522"/>
</g>
<g fill="none" stroke="#000" stroke-width=".666667">
<circle cx="4648.6836" cy="654.29901" r="120.75628"/>
<circle cx="4617.4429" cy="594.32861" r="147.70424"/>
<circle cx="4506.3862" cy="589.67865" r="77.443298"/>
<circle cx="4679.603" cy="501.32504" r="76.380753"/>
</g>
<g fill="none" stroke="#000" stroke-width=".666667">
<circle cx="4944.6367" cy="666.23236" r="108.64099"/>
<circle cx="5048.0132" cy="536.25317" r="111.3887"/>
<circle cx="5021.2861" cy="621.48608" r="141.98019"/>
<circle cx="5036.0137" cy="633.48785" r="68.546837"/>
</g>
<g fill="none" stroke="#000" stroke-width=".666667">
<circle cx="431.01962" cy="967.21411" r="107.50011"/>
<circle cx="451.60907" cy="1016.2134" r="74.516068"/>
<circle cx="452.84326" cy="1068.493" r="106.81673"/>
<circle cx="338.54752" cy="923.02142" r="98.266663"/>
</g>
<g fill="none" stroke="#000" stroke-width=".666667">
<circle cx="796.83374" cy="1016.4998" r="77.646355"/>
<circle cx="855.94666" cy="1005.5627" r="119.06506"/>
<circle cx="807.44299" cy="919.20935" r="39.109638"/>
<circle cx="742.77374" cy="992.7016" r="117.9423"/>
</g>
<g fill="none" stroke="#000" stroke-width=".666667">
<circle cx="1209.5358" cy="999.55432" r="67.351372"/>
<circle cx="1151.1754" cy="997.77979" r="107.94288"/>
<circle cx="1128.8621" cy="996.98511" r="104.01571"/>
<circle cx="1267.4022" cy="1001.3403" r="107.4646"/>
</g>
<g fill="none" stroke="#000" stroke-width=".666667">
<circle cx="1672.8438" cy="1042.8513" r="102.1885"/>
<circle cx="1522.9066" cy="1047.8574" r="97.99205"/>
<circle cx="1590.4858" cy="952.14746" r="102.18978"/>
<circle cx="1596.7612" cy="1045.6979" r="102.98325"/>
</g>
<g fill="none" stroke="#000" stroke-width=".666667">
<circle cx="2068.2405" cy="1000.976" r="106.97752"/>
<circle cx="1932.0482" cy="998.88159" r="107.06506"/>
<circle cx="2000.2853" cy="1000.0223" r="65.660774"/>
<circle cx="2002.3794" cy="998.79956" r="105.70665"/>
</g>
<g fill="none" stroke="#000" stroke-width=".666667">
<circle cx="2485.4792" cy="1072.0687" r="89.453773"/>
<circle cx="2407.4539" cy="1028.3466" r="7.3055911"/>
<circle cx="2397.6313" cy="924.92401" r="89.263298"/>
<circle cx="2314.1213" cy="1073.9525" r="89.244385"/>
</g>
<g fill="none" stroke="#000" stroke-width=".666667">
<circle cx="2799.4521" cy="1081.4463" r="93.727043"/>
<circle cx="2784.9844" cy="1003.3226" r="15.841281"/>
<circle cx="2798.9575" cy="910.49695" r="85.571342"/>
<circle cx="2814.0059" cy="1002.2175" r="14.742578"/>
</g>
<g fill="none" stroke="#000" stroke-width=".666667">
<circle cx="3258.572" cy="983.26862" r="116.52551"/>
<circle cx="3203.6199" cy="1009.5953" r="78.070152"/>
<circle cx="3142.3318" cy="1015.024" r="117.4445"/>
<circle cx="3197.7974" cy="988.14246" r="77.895439"/>
</g>
<g fill="none" stroke="#000" stroke-width=".666667">
<circle cx="3673.3398" cy="995.69025" r="101.62995"/>
<circle cx="3546.8259" cy="1001.1552" r="121.8798"/>
<circle cx="3571.5569" cy="1001.0956" r="48.917339"/>
<circle cx="3600.2715" cy="999.18762" r="126.37576"/>
</g>
<g fill="none" stroke="#000" stroke-width=".666667">
<circle cx="4059.99" cy="916.47778" r="91.507301"/>
<circle cx="4039.2532" cy="962.26965" r="92.250145"/>
<circle cx="4076.1125" cy="1082.6962" r="92.444771"/>
<circle cx="3923.4082" cy="1012.7222" r="92.448296"/>
</g>
<g fill="none" stroke="#000" stroke-width=".666667">
<circle cx="4467.8291" cy="975.534" r="107.34508"/>
<circle cx="4395.4829" cy="993.75623" r="89.041008"/>
<circle cx="4337.0581" cy="1008.689" r="69.745201"/>
<circle cx="4375.9097" cy="999.87299" r="150.9268"/>
</g>
<g fill="none" stroke="#000" stroke-width=".666667">
<circle cx="4883.3369" cy="1050.2496" r="91.536125"/>
<circle cx="4792.7637" cy="924.07404" r="91.21051"/>
<circle cx="4812.2925" cy="951.76257" r="43.555515"/>
<circle cx="4716.0142" cy="1074.4916" r="91.267487"/>
</g>
<g fill="none" stroke="#000" stroke-width=".666667">
<circle cx="261.01279" cy="1388.5836" r="113.85018"/>
<circle cx="139.21118" cy="1408.6401" r="114.3744"/>
<circle cx="190.22987" cy="1340.6544" r="111.765"/>
<circle cx="210.18239" cy="1457.1309" r="112.16122"/>
</g>
<g fill="none" stroke="#000" stroke-width=".667">
<circle cx="613.86145" cy="1345.9067" r="33.002808"/>
<circle cx="538.6405" cy="1405.1925" r="113.83717"/>
<circle cx="600.43793" cy="1426.3381" r="63.646053"/>
<circle cx="659.50934" cy="1395.3258" r="115.44334"/>
</g>
<g fill="none" stroke="#000" stroke-width=".666667">
<circle cx="1070.8176" cy="1458.1565" r="104.21229"/>
<circle cx="996.53638" cy="1424.7487" r="139.14052"/>
<circle cx="919.50684" cy="1472.9967" r="94.714851"/>
<circle cx="963.04578" cy="1284.0707" r="52.298672"/>
</g>
<g fill="none" stroke="#000" stroke-width=".666667">
<circle cx="1409.6936" cy="1507.4816" r="67.826096"/>
<circle cx="1461.4276" cy="1394.7368" r="68.740448"/>
<circle cx="1337.343" cy="1406.8174" r="68.652145"/>
<circle cx="1388.8356" cy="1293.4137" r="68.444923"/>
</g>
<g fill="none" stroke="#000" stroke-width=".666667">
<circle cx="1716.3877" cy="1437.806" r="91.392036"/>
<circle cx="1805.1611" cy="1350.3423" r="91.350159"/>
<circle cx="1807.9086" cy="1334.8477" r="60.528755"/>
<circle cx="1884.0986" cy="1449.1416" r="90.925156"/>
</g>
<g fill="none" stroke="#000" stroke-width=".666667">
<circle cx="2133.1951" cy="1401.9515" r="108.38625"/>
<circle cx="2199.9592" cy="1398.9663" r="74.956032"/>
<circle cx="2266.6274" cy="1395.9857" r="108.24306"/>
<circle cx="2199.9778" cy="1398.8027" r="58.204483"/>
</g>
<g fill="none" stroke="#000" stroke-width=".666667">
<circle cx="2536.6238" cy="1403.145" r="111.83649"/>
<circle cx="2671.0017" cy="1395.6575" r="81.097214"/>
<circle cx="2660.1912" cy="1397.6176" r="114.79623"/>
<circle cx="2619.3064" cy="1398.6411" r="51.502277"/>
</g>
<g fill="none" stroke="#000" stroke-width=".666667">
<circle cx="2925.9521" cy="1436.0239" r="100.97315"/>
<circle cx="3022.2085" cy="1323.5082" r="95.538406"/>
<circle cx="3007.1719" cy="1412.1769" r="142.05933"/>
<circle cx="3068.7646" cy="1463.8466" r="106.26869"/>
</g>
<g fill="none" stroke="#000" stroke-width=".666667">
<circle cx="3399.9001" cy="1427.5168" r="20.889297"/>
<circle cx="3484.4421" cy="1474.3707" r="90.380257"/>
<circle cx="3316.6553" cy="1478.675" r="91.837097"/>
<circle cx="3398.3" cy="1320.3896" r="91.645172"/>
</g>
<g fill="none" stroke="#000" stroke-width=".666667">
<circle cx="3850.6936" cy="1355.3853" r="124.39008"/>
<circle cx="3806.4739" cy="1407.556" r="81.185448"/>
<circle cx="3749.2708" cy="1444.5731" r="124.34578"/>
<circle cx="3804.0364" cy="1344.925" r="50.733604"/>
</g>
<g fill="none" stroke="#000" stroke-width=".666667">
<circle cx="4297.0938" cy="1402.1722" r="77.662506"/>
<circle cx="4226.605" cy="1400.8103" r="96.38163"/>
<circle cx="4167.9854" cy="1399.2828" r="96.08844"/>
<circle cx="4099.7822" cy="1399.0897" r="75.060936"/>
</g>
<g fill="none" stroke="#000" stroke-width=".666667">
<circle cx="4674.0708" cy="1397.774" r="100.82275"/>
<circle cx="4600.6675" cy="1432.4686" r="28.717369"/>
<circle cx="4525.8032" cy="1400.3555" r="101.01311"/>
<circle cx="4599.3262" cy="1365.7476" r="28.788692"/>
</g>
<g fill="none" stroke="#000" stroke-width=".666667">
<circle cx="5001.3174" cy="1318.3055" r="90.31543"/>
<circle cx="4915.2427" cy="1433.6034" r="90.295113"/>
<circle cx="4941.355" cy="1480.9332" r="90.154213"/>
<circle cx="5084.8389" cy="1470.4983" r="90.436577"/>
</g>
<g fill="none" stroke="#000" stroke-width=".666667">
<circle cx="397.66232" cy="1828.0159" r="12.487413"/>
<circle cx="313.72906" cy="1875.189" r="89.073639"/>
<circle cx="485.96951" cy="1865.4862" r="88.729515"/>
<circle cx="392.00858" cy="1721.9976" r="88.311272"/>
</g>
<g fill="none" stroke="#000" stroke-width=".666667">
<circle cx="851.19" cy="1882.89" r="91.937897"/>
<circle cx="792.07343" cy="1825.8477" r="74.129379"/>
<circle cx="722.28448" cy="1784.1321" r="86.501816"/>
<circle cx="870.76782" cy="1717.3091" r="92.533409"/>
</g>
<g fill="none" stroke="#000" stroke-width=".666667">
<circle cx="1128.9915" cy="1798.839" r="104.04134"/>
<circle cx="1271.4022" cy="1799.3937" r="103.60163"/>
<circle cx="1221" cy="1747.7892" r="16.21611"/>
<circle cx="1200.3254" cy="1820.4905" r="44.39468"/>
</g>
<g fill="none" stroke="#000" stroke-width=".666667">
<circle cx="1603.7307" cy="1770.8311" r="32.147633"/>
<circle cx="1526.892" cy="1794.861" r="102.08159"/>
<circle cx="1599.3998" cy="1826.4147" r="35.321384"/>
<circle cx="1674.5667" cy="1805.5411" r="100.40038"/>
</g>
<g fill="none" stroke="#000" stroke-width=".666667">
<circle cx="2000.3831" cy="1825.3611" r="118.60895"/>
<circle cx="1894.6287" cy="1880.1917" r="69.761513"/>
<circle cx="2006.0195" cy="1706.3784" r="68.591637"/>
<circle cx="2103.6794" cy="1889.9923" r="71.235626"/>
</g>
<g fill="none" stroke="#000" stroke-width=".666667">
<circle cx="2457.3418" cy="1741.2677" r="96.297951"/>
<circle cx="2341.3081" cy="1721.4514" r="96.607582"/>
<circle cx="2373.5757" cy="1883.5852" r="91.509949"/>
<circle cx="2401.1985" cy="1721.0127" r="55.037056"/>
</g>
<g fill="none" stroke="#000" stroke-width=".666667">
<circle cx="2740.0774" cy="1861.6787" r="113.1458"/>
<circle cx="2854.0608" cy="1803.2996" r="118.57259"/>
<circle cx="2847.7056" cy="1826.0553" r="47.726856"/>
<circle cx="2890.2407" cy="1680.9792" r="56.211449"/>
</g>
<g fill="none" stroke="#000" stroke-width=".666667">
<circle cx="3140.9912" cy="1824.4161" r="63.919582"/>
<circle cx="3117.3784" cy="1852.525" r="92.405083"/>
<circle cx="3283.0073" cy="1880.0826" r="92.336121"/>
<circle cx="3202.323" cy="1718.1305" r="92.370934"/>
</g>
<g fill="none" stroke="#000" stroke-width=".666667">
<circle cx="3588.1934" cy="1799.7407" r="93.751114"/>
<circle cx="3681.9021" cy="1800.2708" r="45.914272"/>
<circle cx="3682.1318" cy="1800.7703" r="92.894478"/>
<circle cx="3482.769" cy="1802.2893" r="57.846329"/>
</g>
<g fill="none" stroke="#000" stroke-width=".666667">
<circle cx="4062.0632" cy="1812.6202" r="113.04671"/>
<circle cx="3937.7324" cy="1786.7599" r="93.279533"/>
<circle cx="3937.7651" cy="1786.7577" r="112.77035"/>
<circle cx="3999.7852" cy="1799.8442" r="68.710648"/>
</g>
<g fill="none" stroke="#000" stroke-width=".666667">
<circle cx="4331.1572" cy="1744.307" r="106.36658"/>
<circle cx="4475.6025" cy="1836.582" r="99.667442"/>
<circle cx="4452.3125" cy="1863.5874" r="73.252342"/>
<circle cx="4403.7886" cy="1845.7904" r="115.62183"/>
</g>
<g fill="none" stroke="#000" stroke-width=".666667">
<circle cx="4814.6982" cy="1799.3313" r="105.14745"/>
<circle cx="4709.8198" cy="1806.3324" r="42.255898"/>
<circle cx="4730.5332" cy="1803.1632" r="105.72126"/>
<circle cx="4883.7197" cy="1781.9557" r="91.135925"/>
</g>
<g fill="none" stroke="#000" stroke-width=".666667">
<circle cx="184.08138" cy="2192.7139" r="3.944654"/>
<circle cx="135.52989" cy="2226.9937" r="60.67918"/>
<circle cx="182.46152" cy="2285.4331" r="89.672089"/>
<circle cx="234.03568" cy="2114.6169" r="89.647041"/>
</g>
<g fill="none" stroke="#000" stroke-width=".666667">
<circle cx="666.97461" cy="2199.1597" r="108.1622"/>
<circle cx="589.91174" cy="2199.3127" r="71.372688"/>
<circle cx="533.18994" cy="2199.3296" r="108.20329"/>
<circle cx="571.01031" cy="2199.6443" r="32.551277"/>
</g>
<g fill="none" stroke="#000" stroke-width=".666667">
<circle cx="938.49628" cy="2189.4758" r="113.7266"/>
<circle cx="1061.9314" cy="2209.2505" r="112.97611"/>
<circle cx="1074.8628" cy="2128.5579" r="50.309174"/>
<circle cx="996.3764" cy="2225.8113" r="60.008739"/>
</g>
<g fill="none" stroke="#000" stroke-width=".666667">
<circle cx="1455.9354" cy="2196.5327" r="70.814468"/>
<circle cx="1401.899" cy="2142.4075" r="117.49582"/>
<circle cx="1344.7804" cy="2193.1973" r="70.843941"/>
<circle cx="1399.8701" cy="2215.0752" r="159.89421"/>
</g>
<g fill="none" stroke="#000" stroke-width=".666667">
<circle cx="1729.8264" cy="2201.2727" r="105.05507"/>
<circle cx="1802.9618" cy="2169.9807" r="42.804008"/>
<circle cx="1869.2513" cy="2198.4043" r="105.55862"/>
<circle cx="1807.4193" cy="2224.3428" r="47.763721"/>
</g>
<g fill="none" stroke="#000" stroke-width=".666667">
<circle cx="2290.4976" cy="2154.0115" r="84.446754"/>
<circle cx="2201.0996" cy="2228.3669" r="140.04515"/>
<circle cx="2127.199" cy="2155.864" r="102.39497"/>
<circle cx="2200.3687" cy="2187.8159" r="157.95284"/>
</g>
<g fill="none" stroke="#000" stroke-width=".666667">
<circle cx="2535.0515" cy="2208.1719" r="42.232132"/>
<circle cx="2598.6934" cy="2199.2371" r="80.062218"/>
<circle cx="2662.2454" cy="2188.7363" r="112.842"/>
<circle cx="2539.1948" cy="2208.9731" r="114.27901"/>
</g>
<g fill="none" stroke="#000" stroke-width=".666667">
<circle cx="3060.7371" cy="2177.9111" r="114.06184"/>
<circle cx="2959.1653" cy="2230.9368" r="52.565823"/>
<circle cx="2955.5994" cy="2205.116" r="130.82295"/>
<circle cx="2946.7683" cy="2179.9592" r="52.116669"/>
</g>
<g fill="none" stroke="#000" stroke-width=".666667">
<circle cx="3301.6621" cy="2213.2361" r="76.763374"/>
<circle cx="3411.8987" cy="2199.0991" r="88.138824"/>
<circle cx="3464.5254" cy="2192.3237" r="110.47512"/>
<circle cx="3365.9512" cy="2205.0413" r="111.11437"/>
</g>
<g fill="none" stroke="#000" stroke-width=".666667">
<circle cx="3916.7969" cy="2164.5134" r="58.097958"/>
<circle cx="3852.907" cy="2161.8521" r="53.584747"/>
<circle cx="3768.4607" cy="2199.4346" r="143.62408"/>
<circle cx="3887.1084" cy="2181.9006" r="26.188816"/>
</g>
<g fill="none" stroke="#000" stroke-width=".666667">
<circle cx="4195.2607" cy="2142.8679" r="77.174332"/>
<circle cx="4245.7007" cy="2172.6182" r="92.114822"/>
<circle cx="4303.5098" cy="2169.6309" r="71.472931"/>
<circle cx="4116.5327" cy="2241.9668" r="91.861443"/>
</g>
<g fill="none" stroke="#000" stroke-width=".666667">
<circle cx="4656.2358" cy="2235.0642" r="68.643349"/>
<circle cx="4560.5444" cy="2175.4841" r="135.61884"/>
<circle cx="4597.8257" cy="2199.0044" r="45.714886"/>
<circle cx="4637.8306" cy="2221.4792" r="137.26109"/>
</g>
<g fill="none" stroke="#000" stroke-width=".666667">
<circle cx="4918.5249" cy="2167.5454" r="93.65786"/>
<circle cx="5014.0801" cy="2183.488" r="99.753059"/>
<circle cx="5073.4849" cy="2222.4709" r="101.53825"/>
<circle cx="4966.627" cy="2194.1619" r="117.58915"/>
</g>
<g fill="none" stroke="#000" stroke-width=".666667">
<circle cx="409.80978" cy="2663.7595" r="111.89316"/>
<circle cx="392.57306" cy="2583.1831" r="79.818611"/>
<circle cx="387.38116" cy="2537.1531" r="111.85612"/>
<circle cx="405.53168" cy="2606.1177" r="68.490845"/>
</g>
<g fill="none" stroke="#000" stroke-width=".666667">
<circle cx="873.04956" cy="2616.0908" r="101.77138"/>
<circle cx="805.84912" cy="2574.2119" r="129.35829"/>
<circle cx="725.77979" cy="2580.0295" r="100.98269"/>
<circle cx="792.367" cy="2623.6736" r="129.32573"/>
</g>
<g fill="none" stroke="#000" stroke-width=".666667">
<circle cx="1269.9561" cy="2673.095" r="101.7575"/>
<circle cx="1183.8671" cy="2583.9688" r="110.61954"/>
<circle cx="1184" cy="2583.8757" r="66.416328"/>
<circle cx="1110.3055" cy="2508.2366" r="83.453362"/>
</g>
<g fill="none" stroke="#000" stroke-width=".666667">
<circle cx="1666.2948" cy="2605.3691" r="108.87186"/>
<circle cx="1579.0188" cy="2598.115" r="80.713264"/>
<circle cx="1534.7576" cy="2594.5457" r="109.81076"/>
<circle cx="1608.5914" cy="2600.5322" r="62.724674"/>
</g>
<g fill="none" stroke="#000" stroke-width=".666667">
<circle cx="1959.9172" cy="2679.8345" r="86.928955"/>
<circle cx="2006.8469" cy="2538.2339" r="113.31091"/>
<circle cx="2000.8022" cy="2602.1873" r="125.08102"/>
<circle cx="2025.0184" cy="2687.1133" r="87.873863"/>
</g>
<g fill="none" stroke="#000" stroke-width=".666667">
<circle cx="2421.0132" cy="2519.6108" r="91.913963"/>
<circle cx="2429.7361" cy="2543.6323" r="80.892128"/>
<circle cx="2483.1223" cy="2679.2466" r="91.850067"/>
<circle cx="2315.3054" cy="2652.7959" r="90.571121"/>
</g>
<g fill="none" stroke="#000" stroke-width=".666667">
<circle cx="2851.7017" cy="2679.5796" r="95.401253"/>
<circle cx="2760.51" cy="2587.9946" r="69.029388"/>
<circle cx="2780.9658" cy="2531.9817" r="107.13696"/>
<circle cx="2761.3806" cy="2648.6306" r="109.49692"/>
</g>
<g fill="none" stroke="#000" stroke-width=".666667">
<circle cx="3195.9646" cy="2531.9319" r="106.98405"/>
<circle cx="3202.2207" cy="2668.1943" r="106.96854"/>
<circle cx="3246.6025" cy="2670.104" r="51.376438"/>
<circle cx="3156.554" cy="2672.2129" r="49.895065"/>
</g>
<g fill="none" stroke="#000" stroke-width=".666667">
<circle cx="3504.0652" cy="2661.5298" r="79.241325"/>
<circle cx="3619.7122" cy="2599.2629" r="155.28645"/>
<circle cx="3597.7812" cy="2613.1724" r="77.966621"/>
<circle cx="3665.3845" cy="2573.9619" r="51.540318"/>
</g>
<g fill="none" stroke="#000" stroke-width=".666667">
<circle cx="4065.3589" cy="2659.3379" r="109.62825"/>
<circle cx="4011.9563" cy="2539.9792" r="110.12489"/>
<circle cx="4003.8645" cy="2615.3894" r="90.026344"/>
<circle cx="3934.9443" cy="2646.281" r="110.0777"/>
</g>
<g fill="none" stroke="#000" stroke-width=".666667">
<circle cx="4333.1069" cy="2607.5791" r="108.1142"/>
<circle cx="4389.458" cy="2600.8679" r="71.426918"/>
<circle cx="4466.4141" cy="2591.6475" r="108.81413"/>
<circle cx="4303.9707" cy="2610.9587" r="34.713116"/>
</g>
<g fill="none" stroke="#000" stroke-width=".666667">
<circle cx="4718.3174" cy="2675.7219" r="93.464027"/>
<circle cx="4882.2559" cy="2670.3145" r="92.805939"/>
<circle cx="4800.6538" cy="2672.9846" r="26.571514"/>
<circle cx="4795.9424" cy="2523.0908" r="93.280594"/>
</g>
<g fill="none" stroke="#000" stroke-width=".666667">
<circle cx="260.53931" cy="2988.8018" r="68.17617"/>
<circle cx="194.5312" cy="2963.6885" r="100.60848"/>
<circle cx="128.50471" cy="2966.6824" r="103.70905"/>
<circle cx="245.66013" cy="3006.22" r="129.23361"/>
</g>
<g fill="none" stroke="#000" stroke-width=".666667">
<circle cx="691.63446" cy="3037.7786" r="83.320038"/>
<circle cx="615.32611" cy="2971.1189" r="121.253"/>
<circle cx="524.04132" cy="3049.6277" r="99.22757"/>
<circle cx="613.14734" cy="2929.438" r="64.981949"/>
</g>
<g fill="none" stroke="#000" stroke-width=".666667">
<circle cx="1002.9263" cy="3066.1858" r="108.6181"/>
<circle cx="1022.7196" cy="2933.5349" r="108.76449"/>
<circle cx="1005.3608" cy="2998.7258" r="64.18737"/>
<circle cx="975.48413" cy="3057.8538" r="107.53369"/>
</g>
<g fill="none" stroke="#000" stroke-width=".666667">
<circle cx="1397.9946" cy="2926.3093" r="91.511047"/>
<circle cx="1483.3304" cy="3069.0288" r="91.580437"/>
<circle cx="1399.6425" cy="3020.79" r="49.605743"/>
<circle cx="1316.6737" cy="3071.6611" r="91.914276"/>
</g>
<g fill="none" stroke="#000" stroke-width=".666667">
<circle cx="1752.4264" cy="2981.8538" r="98.962242"/>
<circle cx="1813.6801" cy="2999.0273" r="60.084072"/>
<circle cx="1875.5103" cy="3016.2412" r="99.452705"/>
<circle cx="1678.9471" cy="2962.9551" r="54.25021"/>
</g>
<g fill="none" stroke="#000" stroke-width=".666667">
<circle cx="2202.4587" cy="3003.5847" r="29.012951"/>
<circle cx="2201.812" cy="2929.8428" r="100.97713"/>
<circle cx="2114.6716" cy="3080.8679" r="89.769218"/>
<circle cx="2288.8921" cy="3077.1628" r="86.327179"/>
</g>
<g fill="none" stroke="#000" stroke-width=".666667">
<circle cx="2581.8093" cy="3058.3574" r="68.529289"/>
<circle cx="2493.5745" cy="3019.9993" r="68.915375"/>
<circle cx="2627.616" cy="2941.9087" r="69.228539"/>
<circle cx="2705.5911" cy="3040.7466" r="69.282303"/>
</g>
<g fill="none" stroke="#000" stroke-width=".666667">
<circle cx="2975.875" cy="2906.5034" r="81.801064"/>
<circle cx="2905.552" cy="3019.957" r="79.62619"/>
<circle cx="3090.4451" cy="2979.0259" r="81.877129"/>
<circle cx="3017.0808" cy="3093.3335" r="81.719902"/>
</g>
<g fill="none" stroke="#000" stroke-width=".666667">
<circle cx="3320.7024" cy="2999.2715" r="95.961639"/>
<circle cx="3400.2856" cy="3022.6482" r="27.652639"/>
<circle cx="3479.3586" cy="2998.3579" r="95.570969"/>
<circle cx="3400.272" cy="3010.5881" r="18.07135"/>
</g>
<g fill="none" stroke="#000" stroke-width=".666667">
<circle cx="3871.5676" cy="2996.4419" r="103.33524"/>
<circle cx="3777.3086" cy="2984.0439" r="56.25499"/>
<circle cx="3727.9998" cy="3002.9126" r="103.23727"/>
<circle cx="3794.3591" cy="3010.7312" r="30.605976"/>
</g>
<g fill="none" stroke="#000" stroke-width=".666667">
<circle cx="4267.2334" cy="3012.1487" r="107.72285"/>
<circle cx="4184.9453" cy="2997.3442" r="70.179596"/>
<circle cx="4133.2529" cy="2988.1221" r="108.5118"/>
<circle cx="4215.5024" cy="3002.8364" r="69.808731"/>
</g>
<g fill="none" stroke="#000" stroke-width=".666667">
<circle cx="4654.9917" cy="3045.2842" r="119.92497"/>
<circle cx="4597.4819" cy="2951.2168" r="120.43452"/>
<circle cx="4598.8828" cy="3015.2527" r="69.051376"/>
<circle cx="4544.4482" cy="3047.7708" r="119.67"/>
</g>
<g fill="none" stroke="#000" stroke-width=".666667">
<circle cx="4983.5063" cy="2945.906" r="103.96267"/>
<circle cx="5056.7124" cy="3000.9504" r="118.35329"/>
<circle cx="5077.6299" cy="2990.0522" r="47.261059"/>
<circle cx="4912.8589" cy="3068.8127" r="88.048119"/>
</g>
<g fill="none" stroke="#000" stroke-width=".666667">
<circle cx="449.27438" cy="3346.9734" r="7.7214661"/>
<circle cx="464.04346" cy="3289.7092" r="65.033409"/>
<circle cx="514.42877" cy="3352.7822" r="59.519768"/>
<circle cx="353.30264" cy="3446.3767" r="128.63741"/>
</g>
<g fill="none" stroke="#000" stroke-width=".666667">
<circle cx="805.49927" cy="3324.6184" r="93.836784"/>
<circle cx="804.94519" cy="3337.2141" r="94.828613"/>
<circle cx="885.31445" cy="3477.689" r="89.770126"/>
<circle cx="715.77765" cy="3472.7141" r="90.855003"/>
</g>
<g fill="none" stroke="#000" stroke-width=".666667">
<circle cx="1119.3763" cy="3451.1541" r="85.463516"/>
<circle cx="1201.3339" cy="3490.4883" r="84.516647"/>
<circle cx="1279.1106" cy="3444.8545" r="85.331131"/>
<circle cx="1193.8408" cy="3309.9146" r="85.230492"/>
</g>
<g fill="none" stroke="#000" stroke-width=".666667">
<circle cx="1636.4033" cy="3412.0015" r="71.85714"/>
<circle cx="1712.0085" cy="3454.3674" r="62.799782"/>
<circle cx="1547.8011" cy="3374.7842" r="71.907845"/>
<circle cx="1479.3099" cy="3336.573" r="54.577618"/>
</g>
<g fill="none" stroke="#000" stroke-width=".666667">
<circle cx="2021.3727" cy="3370.1213" r="84.412392"/>
<circle cx="1982.7468" cy="3430.1218" r="84.195618"/>
<circle cx="2092.7981" cy="3459.3826" r="82.210976"/>
<circle cx="1908.9502" cy="3340.9468" r="84.05732"/>
</g>
<g fill="none" stroke="#000" stroke-width=".666667">
<circle cx="2484.1746" cy="3467.999" r="90.864876"/>
<circle cx="2402.7576" cy="3330.7815" r="90.907417"/>
<circle cx="2402.928" cy="3330.8235" r="79.663063"/>
<circle cx="2314.9888" cy="3463.0352" r="90.187141"/>
</g>
<g fill="none" stroke="#000" stroke-width=".666667">
<circle cx="2879.499" cy="3445.5215" r="87.694603"/>
<circle cx="2720.5291" cy="3454.3262" r="87.597679"/>
<circle cx="2772.5784" cy="3508.3745" r="66.508247"/>
<circle cx="2792.197" cy="3312.3989" r="87.567879"/>
</g>
<g fill="none" stroke="#000" stroke-width=".666667">
<circle cx="3259.9185" cy="3450.3391" r="115.22587"/>
<circle cx="3215.0081" cy="3383.6704" r="149.74588"/>
<circle cx="3108.707" cy="3405.2363" r="83.896149"/>
<circle cx="3261.2869" cy="3335.0857" r="41.345524"/>
</g>
<g fill="none" stroke="#000" stroke-width=".666667">
<circle cx="3650.0149" cy="3398.5244" r="74.706001"/>
<circle cx="3549.7712" cy="3400.4292" r="124.82507"/>
<circle cx="3549.7141" cy="3400.1995" r="75.384354"/>
<circle cx="3650.4524" cy="3398.4976" r="124.55885"/>
</g>
<g fill="none" stroke="#000" stroke-width=".666667">
<circle cx="3987.1812" cy="3401.4741" r="83.910217"/>
<circle cx="4031.5161" cy="3397.2849" r="54.932732"/>
<circle cx="4091.2576" cy="3391.6018" r="83.834686"/>
<circle cx="3908.74" cy="3407.4502" r="83.808273"/>
</g>
<g fill="none" stroke="#000" stroke-width=".666667">
<circle cx="4347.584" cy="3377.6616" r="122.72856"/>
<circle cx="4450.0073" cy="3419.6064" r="124.93827"/>
<circle cx="4471.1641" cy="3372.4065" r="38.416245"/>
<circle cx="4427.2173" cy="3471.0481" r="34.362774"/>
</g>
<g fill="none" stroke="#000" stroke-width=".666667">
<circle cx="4721.5884" cy="3401.2407" r="96.589523"/>
<circle cx="4826.3291" cy="3398.4727" r="109.57832"/>
<circle cx="4876.6904" cy="3397.5383" r="98.402618"/>
<circle cx="4773.8828" cy="3399.7505" r="109.24945"/>
</g>
</svg>
