<svg width="5200" height="3600" version="1.2" xmlns="http://www.w3.org/2000/svg">
<g fill="none" stroke="#000" stroke-width=".666667">
<circle cx="485.52368" cy="267.36136" r="89.585968"/>
<circle cx="403.19858" cy="171.20601" r="55.089333"/>
<circle cx="396.95993" cy="123.30041" r="91.474884"/>
<circle cx="316.47638" cy="274.26218" r="91.589729"/>
</g>
<g fill="none" stroke="#000" stroke-width=".666667">
<circle cx="750.7735" cy="184.71297" r="125.89445"/>
<circle cx="870.14709" cy="226.41635" r="51.029129"/>
<circle cx="848.56561" cy="214.44511" r="126.321"/>
<circle cx="728.2002" cy="173.31828" r="50.695141"/>
</g>
<g fill="none" stroke="#000" stroke-width=".666667">
<circle cx="1285.4965" cy="275.15985" r="89.276665"/>
<circle cx="1198.8898" cy="255.91122" r="47.329021"/>
<circle cx="1112.8574" cy="273.34021" r="88.169952"/>
<circle cx="1199.6556" cy="124.04977" r="89.356293"/>
</g>
<g fill="none" stroke="#000" stroke-width=".666667">
<circle cx="1591.4639" cy="119.24269" r="94.543373"/>
<circle cx="1516.7444" cy="218.63602" r="91.916931"/>
<circle cx="1576.6753" cy="240.91429" r="33.785519"/>
<circle cx="1680.4249" cy="279.43158" r="94.451881"/>
</g>
<g fill="none" stroke="#000" stroke-width=".666667">
<circle cx="2069.467" cy="208.52231" r="105.72099"/>
<circle cx="1992.725" cy="199.27322" r="91.166115"/>
<circle cx="1914.0613" cy="189.82318" r="89.180176"/>
<circle cx="1992.7291" cy="199.47972" r="129.5923"/>
</g>
<g fill="none" stroke="#000" stroke-width=".666667">
<circle cx="2394.1187" cy="148.14018" r="112.20038"/>
<circle cx="2454.6235" cy="242.85315" r="60.446301"/>
<circle cx="2340.0679" cy="247.78609" r="115.11084"/>
<circle cx="2454.1125" cy="243.10103" r="120.94922"/>
</g>
<g fill="none" stroke="#000" stroke-width=".666667">
<circle cx="2801.2747" cy="217.14992" r="53.680256"/>
<circle cx="2831.8538" cy="185.34232" r="84.282928"/>
<circle cx="2855.3147" cy="138.43777" r="113.48813"/>
<circle cx="2743.2632" cy="261.71222" r="113.34244"/>
</g>
<g fill="none" stroke="#000" stroke-width=".666667">
<circle cx="3112.7725" cy="251.2861" r="62.804825"/>
<circle cx="3166.8162" cy="131.5074" r="106.51921"/>
<circle cx="3198.7388" cy="177.57567" r="55.388081"/>
<circle cx="3253.9438" cy="280.34238" r="94.76683"/>
</g>
<g fill="none" stroke="#000" stroke-width=".666667">
<circle cx="3515.4126" cy="273.93881" r="90.634315"/>
<circle cx="3684.532" cy="268.82178" r="90.324005"/>
<circle cx="3600.0054" cy="252.11784" r="25.648277"/>
<circle cx="3595.9165" cy="124.50243" r="90.590698"/>
</g>
<g fill="none" stroke="#000" stroke-width=".666667">
<circle cx="4031.5618" cy="257.18549" r="117.80342"/>
<circle cx="3967.2761" cy="142.2831" r="117.38194"/>
<circle cx="3989.0759" cy="205.03941" r="73.504784"/>
<circle cx="3982.9062" cy="208.95518" r="103.46648"/>
</g>
<g fill="none" stroke="#000" stroke-width=".666667">
<circle cx="4432.7661" cy="133.89026" r="109.01151"/>
<circle cx="4374.5381" cy="226.46156" r="131.55138"/>
<circle cx="4398.7256" cy="237.45206" r="52.24358"/>
<circle cx="4424.2632" cy="243.47113" r="131.57686"/>
</g>
<g fill="none" stroke="#000" stroke-width=".666667">
<circle cx="4727.873" cy="218.01576" r="103.02703"/>
<circle cx="4820.7334" cy="153.11967" r="128.28249"/>
<circle cx="4877.3442" cy="212.29532" r="72.087662"/>
<circle cx="4813.1963" cy="212.05775" r="161.72124"/>
</g>
<g fill="none" stroke="#000" stroke-width=".666667">
<circle cx="128.19638" cy="649.72095" r="73.091705"/>
<circle cx="211.15657" cy="581.23816" r="101.79014"/>
<circle cx="100.62989" cy="583.67334" r="75.669273"/>
<circle cx="307.1734" cy="543.89478" r="68.003708"/>
</g>
<g fill="none" stroke="#000" stroke-width=".666667">
<circle cx="538.91144" cy="625.45374" r="113.91404"/>
<circle cx="660.84552" cy="588.71753" r="114.31702"/>
<circle cx="599.64423" cy="607.1731" r="78.969482"/>
<circle cx="573.77643" cy="545.8783" r="87.044044"/>
</g>
<g fill="none" stroke="#000" stroke-width=".666667">
<circle cx="939.95404" cy="648.73218" r="115.08067"/>
<circle cx="1031.6698" cy="578.44073" r="95.245872"/>
<circle cx="1031.4995" cy="578.06921" r="47.730003"/>
<circle cx="1031.8876" cy="577.95288" r="142.9903"/>
</g>
<g fill="none" stroke="#000" stroke-width=".666667">
<circle cx="1400.4829" cy="622.67004" r="16.579388"/>
<circle cx="1402.5222" cy="523.25146" r="89.566849"/>
<circle cx="1485.6169" cy="674.7312" r="89.644562"/>
<circle cx="1313.8627" cy="670.62335" r="88.865326"/>
</g>
<g fill="none" stroke="#000" stroke-width=".666667">
<circle cx="1826.7435" cy="513.50214" r="81.674927"/>
<circle cx="1811.8561" cy="535.63531" r="91.178345"/>
<circle cx="1884.4205" cy="663.00031" r="90.476196"/>
<circle cx="1715.5129" cy="675.81567" r="90.708664"/>
</g>
<g fill="none" stroke="#000" stroke-width=".666667">
<circle cx="2125.3372" cy="654.85101" r="100.29333"/>
<circle cx="2177.5081" cy="670.82751" r="100.28075"/>
<circle cx="2275.0205" cy="527.9173" r="100.21877"/>
<circle cx="2240.6433" cy="620.96509" r="24.13843"/>
</g>
<g fill="none" stroke="#000" stroke-width=".666667">
<circle cx="2662.1416" cy="602.20062" r="112.85532"/>
<circle cx="2599.095" cy="618.40363" r="65.450531"/>
<circle cx="2537.7859" cy="595.8717" r="113.03432"/>
<circle cx="2602.4346" cy="553.48053" r="18.080309"/>
</g>
<g fill="none" stroke="#000" stroke-width=".666667">
<circle cx="2950.5254" cy="523.75549" r="99.060783"/>
<circle cx="3048.4858" cy="675.82666" r="99.163429"/>
<circle cx="3039.7788" cy="608.0249" r="27.25131"/>
<circle cx="2993.2778" cy="620.26129" r="24.383101"/>
</g>
<g fill="none" stroke="#000" stroke-width=".666667">
<circle cx="3294.9749" cy="583.04413" r="70.033432"/>
<circle cx="3337.3906" cy="591.16339" r="78.223442"/>
<circle cx="3406.2405" cy="603.76123" r="78.065781"/>
<circle cx="3511.5242" cy="621.55896" r="63.627106"/>
</g>
<g fill="none" stroke="#000" stroke-width=".666667">
<circle cx="3718.6582" cy="598.82593" r="93.7677"/>
<circle cx="3854.0024" cy="600.08667" r="121.09476"/>
<circle cx="3849.6423" cy="599.12811" r="76.400703"/>
<circle cx="3781.3943" cy="598.94684" r="107.90791"/>
</g>
<g fill="none" stroke="#000" stroke-width=".666667">
<circle cx="4126.3271" cy="650.81647" r="86.592735"/>
<circle cx="4213.686" cy="627.77307" r="100.99415"/>
<circle cx="4243.5864" cy="525.94336" r="101.04653"/>
<circle cx="4274.4155" cy="691.45306" r="83.65522"/>
</g>
<g fill="none" stroke="#000" stroke-width=".666667">
<circle cx="4648.6836" cy="654.29901" r="120.75628"/>
<circle cx="4617.4429" cy="594.32861" r="147.70424"/>
<circle cx="4506.3862" cy="589.67865" r="77.443298"/>
<circle cx="4679.603" cy="501.32504" r="76.380753"/>
</g>
<g fill="none" stroke="#000" stroke-width=".666667">
<circle cx="4944.6367" cy="666.23236" r="108.64099"/>
<circle cx="5048.0132" cy="536.25317" r="111.3887"/>
<circle cx="5021.2861" cy="621.48608" r="141.98019"/>
<circle cx="5036.0137" cy="633.48785" r="68.546837"/>
</g>
<g fill="none" stroke="#000" stroke-width=".666667">
<circle cx="431.01962" cy="967.21411" r="107.50011"/>
<circle cx="451.60907" cy="1016.2134" r="74.516068"/>
<circle cx="452.84326" cy="1068.493" r="106.81673"/>
<circle cx="338.54752" cy="923.02142" r="98.266663"/>
</g>
<g fill="none" stroke="#000" stroke-width=".666667">
<circle cx="796.83374" cy="1016.4998" r="77.646355"/>
<circle cx="855.94666" cy="1005.5627" r="119.06506"/>
<circle cx="807.44299" cy="919.20935" r="39.109638"/>
<circle cx="742.77374" cy="992.7016" r="117.9423"/>
</g>
<g fill="none" stroke="#000" stroke-width=".666667">
<circle cx="1209.5358" cy="999.55432" r="67.351372"/>
<circle cx="1151.1754" cy="997.77979" r="107.94288"/>
<circle cx="1128.8621" cy="996.98511" r="104.01571"/>
<circle cx="1267.4022" cy="1001.3403" r="107.4646"/>
</g>
<g fill="none" stroke="#000" stroke-width=".666667">
<circle cx="1672.8438" cy="1042.8513" r="102.1885"/>
<circle cx="1522.9066" cy="1047.8574" r="97.99205"/>
<circle cx="1590.4858" cy="952.14746" r="102.18978"/>
<circle cx="1596.7612" cy="1045.6979" r="102.98325"/>
</g>
<g fill="none" stroke="#000" stroke-width=".666667">
<circle cx="2068.2405" cy="1000.976" r="106.97752"/>
<circle cx="1932.0482" cy="998.88159" r="107.06506"/>
<circle cx="2000.2853" cy="1000.0223" r="65.660774"/>
<circle cx="2002.3794" cy="998.79956" r="105.70665"/>
</g>
<g fill="none" stroke="#000" stroke-width=".666667">
<circle cx="2485.4792" cy="1072.0687" r="89.453773"/>
<circle cx="2407.4539" cy="1028.3466" r="7.3055911"/>
<circle cx="2397.6313" cy="924.92401" r="89.263298"/>
<circle cx="2314.1213" cy="1073.9525" r="89.244385"/>
</g>
<g fill="none" stroke="#000" stroke-width=".666667">
<circle cx="2799.4521" cy="1081.4463" r="93.727043"/>
<circle cx="2784.9844" cy="1003.3226" r="15.841281"/>
<circle cx="2798.9575" cy="910.49695" r="85.571342"/>
<circle cx="2814.0059" cy="1002.2175" r="14.742578"/>
</g>
<g fill="none" stroke="#000" stroke-width=".666667">
<circle cx="3258.572" cy="983.26862" r="116.52551"/>
<circle cx="3203.6199" cy="1009.5953" r="78.070152"/>
<circle cx="3142.3318" cy="1015.024" r="117.4445"/>
<circle cx="3197.7974" cy="988.14246" r="77.895439"/>
</g>
<g fill="none" stroke="#000" stroke-width=".666667">
<circle cx="3673.3398" cy="995.69025" r="101.62995"/>
<circle cx="3546.8259" cy="1001.1552" r="121.8798"/>
<circle cx="3571.5569" cy="1001.0956" r="48.917339"/>
<circle cx="3600.2715" cy="999.18762" r="126.37576"/>
</g>
<g fill="none" stroke="#000" stroke-width=".666667">
<circle cx="4059.99" cy="916.47778" r="91.507301"/>
<circle cx="4039.2532" cy="962.26965" r="92.250145"/>
<circle cx="4076.1125" cy="1082.6962" r="92.444771"/>
<circle cx="3923.4082" cy="1012.7222" r="92.448296"/>
</g>
<g fill="none" stroke="#000" stroke-width=".666667">
<circle cx="4467.8291" cy="975.534" r="107.34508"/>
<circle cx="4395.4829" cy="993.75623" r="89.041008"/>
<circle cx="4337.0581" cy="1008.689" r="69.745201"/>
<circle cx="4375.9097" cy="999.87299" r="150.9268"/>
</g>
<g fill="none" stroke="#000" stroke-width=".666667">
<circle cx="4883.3369" cy="1050.2496" r="91.536125"/>
<circle cx="4792.7637" cy="924.07404" r="91.21051"/>
<circle cx="4812.2925" cy="951.76257" r="43.555515"/>
<circle cx="4716.0142" cy="1074.4916" r="91.267487"/>
</g>
<g fill="none" stroke="#000" stroke-width=".666667">
<circle cx="261.01279" cy="1388.5836" r="113.85018"/>
<circle cx="139.21118" cy="1408.6401" r="114.3744"/>
<circle cx="190.22987" cy="1340.6544" r="111.765"/>
<circle cx="210.18239" cy="1457.1309" r="112.16122"/>
</g>
<g fill="none" stroke="#000" stroke-width=".667">
<circle cx="613.86145" cy="1345.9067" r="33.002808"/>
<circle cx="538.6405" cy="1405.1925" r="113.83717"/>
<circle cx="600.43793" cy="1426.3381" r="63.646053"/>
<circle cx="659.50934" cy="1395.3258" r="115.44334"/>
</g>
<g fill="none" stroke="#000" stroke-width=".666667">
<circle cx="1070.8176" cy="1458.1565" r="104.21229"/>
<circle cx="996.53638" cy="1424.7487" r="139.14052"/>
<circle cx="919.50684" cy="1472.9967" r="94.714851"/>
<circle cx="963.04578" cy="1284.0707" r="52.298672"/>
</g>
<g fill="none" stroke="#000" stroke-width=".666667">
<circle cx="1409.6936" cy="1507.4816" r="67.826096"/>
<circle cx="1461.4276" cy="1394.7368" r="68.740448"/>
<circle cx="1337.343" cy="1406.8174" r="68.652145"/>
<circle cx="1388.8356" cy="1293.4137" r="68.444923"/>
</g>
<g fill="none" stroke="#000" stroke-width=".666667">
<circle cx="1716.3877" cy="1437.806" r="91.392036"/>
<circle cx="1805.1611" cy="1350.3423" r="91.350159"/>
<circle cx="1807.9086" cy="1334.8477" r="60.528755"/>
<circle cx="1884.0986" cy="1449.1416" r="90.925156"/>
</g>
<g fill="none" stroke="#000" stroke-width=".666667">
<circle cx="2133.1951" cy="1401.9515" r="108.38625"/>
<circle cx="2199.9592" cy="1398.9663" r="74.956032"/>
<circle cx="2266.6274" cy="1395.9857" r="108.24306"/>
<circle cx="2199.9778" cy="1398.8027" r="58.204483"/>
</g>
<g fill="none" stroke="#000" stroke-width=".666667">
<circle cx="2536.6238" cy="1403.145" r="111.83649"/>
<circle cx="2671.0017" cy="1395.6575" r="81.097214"/>
<circle cx="2660.1912" cy="1397.6176" r="114.79623"/>
<circle cx="2619.3064" cy="1398.6411" r="51.502277"/>
</g>
<g fill="none" stroke="#000" stroke-width=".666667">
<circle cx="2925.9521" cy="1436.0239" r="100.97315"/>
<circle cx="3022.2085" cy="1323.5082" r="95.538406"/>
<circle cx="3007.1719" cy="1412.1769" r="142.05933"/>
<circle cx="3068.7646" cy="1463.8466" r="106.26869"/>
</g>
<g fill="none" stroke="#000" stroke-width=".666667">
<circle cx="3399.9001" cy="1427.5168" r="20.889297"/>
<circle cx="3484.4421" cy="1474.3707" r="90.380257"/>
<circle cx="3316.6553" cy="1478.675" r="91.837097"/>
<circle cx="3398.3" cy="1320.3896" r="91.645172"/>
</g>
<g fill="none" stroke="#000" stroke-width=".666667">
<circle cx="3850.6936" cy="1355.3853" r="124.39008"/>
<circle cx="3806.4739" cy="1407.556" r="81.185448"/>
<circle cx="3749.2708" cy="1444.5731" r="124.34578"/>
<circle cx="3804.0364" cy="1344.925" r="50.733604"/>
</g>
<g fill="none" stroke="#000" stroke-width=".666667">
<circle cx="4297.0938" cy="1402.1722" r="77.662506"/>
<circle cx="4226.605" cy="1400.8103" r="96.38163"/>
<circle cx="4167.9854" cy="1399.2828" r="96.08844"/>
<circle cx="4099.7822" cy="1399.0897" r="75.060936"/>
</g>
<g fill="none" stroke="#000" stroke-width=".666667">
<circle cx="4674.0708" cy="1397.774" r="100.82275"/>
<circle cx="4600.6675" cy="1432.4686" r="28.717369"/>
<circle cx="4525.8032" cy="1400.3555" r="101.01311"/>
<circle cx="4599.3262" cy="1365.7476" r="28.788692"/>
</g>
<g fill="none" stroke="#000" stroke-width=".666667">
<circle cx="5001.3174" cy="1318.3055" r="90.31543"/>
<circle cx="4915.2427" cy="1433.6034" r="90.295113"/>
<circle cx="4941.355" cy="1480.9332" r="90.154213"/>
<circle cx="5084.8389" cy="1470.4983" r="90.436577"/>
</g>
<g fill="none" stroke="#000" stroke-width=".666667">
<circle cx="397.66232" cy="1828.0159" r="12.487413"/>
<circle cx="313.72906" cy="1875.189" r="89.073639"/>
<circle cx="485.96951" cy="1865.4862" r="88.729515"/>
<circle cx="392.00858" cy="1721.9976" r="88.311272"/>
</g>
<g fill="none" stroke="#000" stroke-width=".666667">
<circle cx="851.19" cy="1882.89" r="91.937897"/>
<circle cx="792.07343" cy="1825.8477" r="74.129379"/>
<circle cx="722.28448" cy="1784.1321" r="86.501816"/>
<circle cx="870.76782" cy="1717.3091" r="92.533409"/>
</g>
<g fill="none" stroke="#000" stroke-width=".666667">
<circle cx="1128.9915" cy="1798.839" r="104.04134"/>
<circle cx="1271.4022" cy="1799.3937" r="103.60163"/>
<circle cx="1221" cy="1747.7892" r="16.21611"/>
<circle cx="1200.3254" cy="1820.4905" r="44.39468"/>
</g>
<g fill="none" stroke="#000" stroke-width=".666667">
<circle cx="1603.7307" cy="1770.8311" r="32.147633"/>
<circle cx="1526.892" cy="1794.861" r="102.08159"/>
<circle cx="1599.3998" cy="1826.4147" r="35.321384"/>
<circle cx="1674.5667" cy="1805.5411" r="100.40038"/>
</g>
<g fill="none" stroke="#000" stroke-width=".666667">
<circle cx="2000.3831" cy="1825.3611" r="118.60895"/>
<circle cx="1894.6287" cy="1880.1917" r="69.761513"/>
<circle cx="2006.0195" cy="1706.3784" r="68.591637"/>
<circle cx="2103.6794" cy="1889.9923" r="71.235626"/>
</g>
<g fill="none" stroke="#000" stroke-width=".666667">
<circle cx="2457.3418" cy="1741.2677" r="96.297951"/>
<circle cx="2341.3081" cy="1721.4514" r="96.607582"/>
<circle cx="2373.5757" cy="1883.5852" r="91.509949"/>
<circle cx="2401.1985" cy="1721.0127" r="55.037056"/>
</g>
<g fill="none" stroke="#000" stroke-width=".666667">
<circle cx="2740.0774" cy="1861.6787" r="113.1458"/>
<circle cx="2854.0608" cy="1803.2996" r="118.57259"/>
<circle cx="2847.7056" cy="1826.0553" r="47.726856"/>
<circle cx="2890.2407" cy="1680.9792" r="56.211449"/>
</g>
<g fill="none" stroke="#000" stroke-width=".666667">
<circle cx="3140.9912" cy="1824.4161" r="63.919582"/>
<circle cx="3117.3784" cy="1852.525" r="92.405083"/>
<circle cx="3283.0073" cy="1880.0826" r="92.336121"/>
<circle cx="3202.323" cy="1718.1305" r="92.370934"/>
</g>
<g fill="none" stroke="#000" stroke-width=".666667">
<circle cx="3588.1934" cy="1799.7407" r="93.751114"/>
<circle cx="3681.9021" cy="1800.2708" r="45.914272"/>
<circle cx="3682.1318" cy="1800.7703" r="92.894478"/>
<circle cx="3482.769" cy="1802.2893" r="57.846329"/>
</g>
<g fill="none" stroke="#000" stroke-width=".666667">
<circle cx="4062.0632" cy="1812.6202" r="113.04671"/>
<circle cx="3937.7324" cy="1786.7599" r="93.279533"/>
<circle cx="3937.7651" cy="1786.7577" r="112.77035"/>
<circle cx="3999.7852" cy="1799.8442" r="68.710648"/>
</g>
<g fill="none" stroke="#000" stroke-width=".666667">
<circle cx="4331.1572" cy="1744.307" r="106.36658"/>
<circle cx="4475.6025" cy="1836.582" r="99.667442"/>
<circle cx="4452.3125" cy="1863.5874" r="73.252342"/>
<circle cx="4403.7886" cy="1845.7904" r="115.62183"/>
</g>
<g fill="none" stroke="#000" stroke-width=".666667">
<circle cx="4814.6982" cy="1799.3313" r="105.14745"/>
<circle cx="4709.8198" cy="1806.3324" r="42.255898"/>
<circle cx="4730.5332" cy="1803.1632" r="105.72126"/>
<circle cx="4883.7197" cy="1781.9557" r="91.135925"/>
</g>
<g fill="none" stroke="#000" stroke-width=".666667">
<circle cx="184.08138" cy="2192.7139" r="3.944654"/>
<circle cx="135.52989" cy="2226.9937" r="60.67918"/>
<circle cx="182.46152" cy="2285.4331" r="89.672089"/>
<circle cx="234.03568" cy="2114.6169" r="89.647041"/>
</g>
<g fill="none" stroke="#000" stroke-width=".666667">
<circle cx="666.97461" cy="2199.1597" r="108.1622"/>
<circle cx="589.91174" cy="2199.3127" r="71.372688"/>
<circle cx="533.18994" cy="2199.3296" r="108.20329"/>
<circle cx="571.01031" cy="2199.6443" r="32.551277"/>
</g>
<g fill="none" stroke="#000" stroke-width=".666667">
<circle cx="938.49628" cy="2189.4758" r="113.7266"/>
<circle cx="1061.9314" cy="2209.2505" r="112.97611"/>
<circle cx="1074.8628" cy="2128.5579" r="50.309174"/>
<circle cx="996.3764" cy="2225.8113" r="60.008739"/>
</g>
<g fill="none" stroke="#000" stroke-width=".666667">
<circle cx="1455.9354" cy="2196.5327" r="70.814468"/>
<circle cx="1401.899" cy="2142.4075" r="117.49582"/>
<circle cx="1344.7804" cy="2193.1973" r="70.843941"/>
<circle cx="1399.8701" cy="2215.0752" r="159.89421"/>
</g>
<g fill="none" stroke="#000" stroke-width=".666667">
<circle cx="1729.8264" cy="2201.2727" r="105.05507"/>
<circle cx="1802.9618" cy="2169.9807" r="42.804008"/>
<circle cx="1869.2513" cy="2198.4043" r="105.55862"/>
<circle cx="1807.4193" cy="2224.3428" r="47.763721"/>
</g>
<g fill="none" stroke="#000" stroke-width=".666667">
<circle cx="2290.4976" cy="2154.0115" r="84.446754"/>
<circle cx="2201.0996" cy="2228.3669" r="140.04515"/>
<circle cx="2127.199" cy="2155.864" r="102.39497"/>
<circle cx="2200.3687" cy="2187.8159" r="157.95284"/>
</g>
<g fill="none" stroke="#000" stroke-width=".666667">
<circle cx="2535.0515" cy="2208.1719" r="42.232132"/>
<circle cx="2598.6934" cy="2199.2371" r="80.062218"/>
<circle cx="2662.2454" cy="2188.7363" r="112.842"/>
<circle cx="2539.1948" cy="2208.9731" r="114.27901"/>
</g>
<g fill="none" stroke="#000" stroke-width=".666667">
<circle cx="3060.7371" cy="2177.9111" r="114.06184"/>
<circle cx="2959.1653" cy="2230.9368" r="52.565823"/>
<circle cx="2955.5994" cy="2205.116" r="130.82295"/>
<circle cx="2946.7683" cy="2179.9592" r="52.116669"/>
</g>
<g fill="none" stroke="#000" stroke-width=".666667">
<circle cx="3301.6621" cy="2213.2361" r="76.763374"/>
<circle cx="3411.8987" cy="2199.0991" r="88.138824"/>
<circle cx="3464.5254" cy="2192.3237" r="110.47512"/>
<circle cx="3365.9512" cy="2205.0413" r="111.11437"/>
</g>
<g fill="none" stroke="#000" stroke-width=".666667">
<circle cx="3916.7969" cy="2164.5134" r="58.097958"/>
<circle cx="3852.907" cy="2161.8521" r="53.584747"/>
<circle cx="3768.4607" cy="2199.4346" r="143.62408"/>
<circle cx="3887.1084" cy="2181.9006" r="26.188816"/>
</g>
<g fill="none" stroke="#000" stroke-width=".666667">
<circle cx="4195.2607" cy="2142.8679" r="77.174332"/>
<circle cx="4245.7007" cy="2172.6182" r="92.114822"/>
<circle cx="4303.5098" cy="2169.6309" r="71.472931"/>
<circle cx="4116.5327" cy="2241.9668" r="91.861443"/>
</g>
<g fill="none" stroke="#000" stroke-width=".666667">
<circle cx="4656.2358" cy="2235.0642" r="68.643349"/>
<circle cx="4560.5444" cy="2175.4841" r="135.61884"/>
<circle cx="4597.8257" cy="2199.0044" r="45.714886"/>
<circle cx="4637.8306" cy="2221.4792" r="137.26109"/>
</g>
<g fill="none" stroke="#000" stroke-width=".666667">
<circle cx="4918.5249" cy="2167.5454" r="93.65786"/>
<circle cx="5014.0801" cy="2183.488" r="99.753059"/>
<circle cx="5073.4849" cy="2222.4709" r="101.53825"/>
<circle cx="4966.627" cy="2194.1619" r="117.58915"/>
</g>
<g fill="none" stroke="#000" stroke-width=".666667">
<circle cx="409.80978" cy="2663.7595" r="111.89316"/>
<circle cx="392.57306" cy="2583.1831" r="79.818611"/>
<circle cx="387.38116" cy="2537.1531" r="111.85612"/>
<circle cx="405.53168" cy="2606.1177" r="68.490845"/>
</g>
<g fill="none" stroke="#000" stroke-width=".666667">
<circle cx="873.04956" cy="2616.0908" r="101.77138"/>
<circle cx="805.84912" cy="2574.2119" r="129.35829"/>
<circle cx="725.77979" cy="2580.0295" r="100.98269"/>
<circle cx="792.367" cy="2623.6736" r="129.32573"/>
</g>
<g fill="none" stroke="#000" stroke-width=".666667">
<circle cx="1269.9561" cy="2673.095" r="101.7575"/>
<circle cx="1183.8671" cy="2583.9688" r="110.61954"/>
<circle cx="1184" cy="2583.8757" r="66.416328"/>
<circle cx="1110.3055" cy="2508.2366" r="83.453362"/>
</g>
<g fill="none" stroke="#000" stroke-width=".666667">
<circle cx="1666.2948" cy="2605.3691" r="108.87186"/>
<circle cx="1579.0188" cy="2598.115" r="80.713264"/>
<circle cx="1534.7576" cy="2594.5457" r="109.81076"/>
<circle cx="1608.5914" cy="2600.5322" r="62.724674"/>
</g>
<g fill="none" stroke="#000" stroke-width=".666667">
<circle cx="1959.9172" cy="2679.8345" r="86.928955"/>
<circle cx="2006.8469" cy="2538.2339" r="113.31091"/>
<circle cx="2000.8022" cy="2602.1873" r="125.08102"/>
<circle cx="2025.0184" cy="2687.1133" r="87.873863"/>
</g>
<g fill="none" stroke="#000" stroke-width=".666667">
<circle cx="2421.0132" cy="2519.6108" r="91.913963"/>
<circle cx="2429.7361" cy="2543.6323" r="80.892128"/>
<circle cx="2483.1223" cy="2679.2466" r="91.850067"/>
<circle cx="2315.3054" cy="2652.7959" r="90.571121"/>
</g>
<g fill="none" stroke="#000" stroke-width=".666667">
<circle cx="2851.7017" cy="2679.5796" r="95.401253"/>
<circle cx="2760.51" cy="2587.9946" r="69.029388"/>
<circle cx="2780.9658" cy="2531.9817" r="107.13696"/>
<circle cx="2761.3806" cy="2648.6306" r="109.49692"/>
</g>
<g fill="none" stroke="#000" stroke-width=".666667">
<circle cx="3195.9646" cy="2531.9319" r="106.98405"/>
<circle cx="3202.2207" cy="2668.1943" r="106.96854"/>
<circle cx="3246.6025" cy="2670.104" r="51.376438"/>
<circle cx="3156.554" cy="2672.2129" r="49.895065"/>
</g>
<g fill="none" stroke="#000" stroke-width=".666667">
<circle cx="3504.0652" cy="2661.5298" r="79.241325"/>
<circle cx="3619.7122" cy="2599.2629" r="155.28645"/>
<circle cx="3597.7812" cy="2613.1724" r="77.966621"/>
<circle cx="3665.3845" cy="2573.9619" r="51.540318"/>
</g>
<g fill="none" stroke="#000" stroke-width=".666667">
<circle cx="4065.3589" cy="2659.3379" r="109.62825"/>
<circle cx="4011.9563" cy="2539.9792" r="110.12489"/>
<circle cx="4003.8645" cy="2615.3894" r="90.026344"/>
<circle cx="3934.9443" cy="2646.281" r="110.0777"/>
</g>
<g fill="none" stroke="#000" stroke-width=".666667">
<circle cx="4333.1069" cy="2607.5791" r="108.1142"/>
<circle cx="4389.458" cy="2600.8679" r="71.426918"/>
<circle cx="4466.4141" cy="2591.6475" r="108.81413"/>
<circle cx="4303.9707" cy="2610.9587" r="34.713116"/>
</g>
<g fill="none" stroke="#000" stroke-width=".666667">
<circle cx="4718.3174" cy="2675.7219" r="93.464027"/>
<circle cx="4882.2559" cy="2670.3145" r="92.805939"/>
<circle cx="4800.6538" cy="2672.9846" r="26.571514"/>
<circle cx="4795.9424" cy="2523.0908" r="93.280594"/>
</g>
<g fill="none" stroke="#000" stroke-width=".666667">
<circle cx="260.53931" cy="2988.8018" r="68.17617"/>
<circle cx="194.5312" cy="2963.6885" r="100.60848"/>
<circle cx="128.50471" cy="2966.6824" r="103.70905"/>
<circle cx="245.66013" cy="3006.22" r="129.23361"/>
</g>
<g fill="none" stroke="#000" stroke-width=".666667">
<circle cx="691.63446" cy="3037.7786" r="83.320038"/>
<circle cx="615.32611" cy="2971.1189" r="121.253"/>
<circle cx="524.04132" cy="3049.6277" r="99.22757"/>
<circle cx="613.14734" cy="2929.438" r="64.981949"/>
</g>
<g fill="none" stroke="#000" stroke-width=".666667">
<circle cx="1002.9263" cy="3066.1858" r="108.6181"/>
<circle cx="1022.7196" cy="2933.5349" r="108.76449"/>
<circle cx="1005.3608" cy="2998.7258" r="64.18737"/>
<circle cx="975.48413" cy="3057.8538" r="107.53369"/>
</g>
<g fill="none" stroke="#000" stroke-width=".666667">
<circle cx="1397.9946" cy="2926.3093" r="91.511047"/>
<circle cx="1483.3304" cy="3069.0288" r="91.580437"/>
<circle cx="1399.6425" cy="3020.79" r="49.605743"/>
<circle cx="1316.6737" cy="3071.6611" r="91.914276"/>
</g>
<g fill="none" stroke="#000" stroke-width=".666667">
<circle cx="1752.4264" cy="2981.8538" r="98.962242"/>
<circle cx="1813.6801" cy="2999.0273" r="60.084072"/>
<circle cx="1875.5103" cy="3016.2412" r="99.452705"/>
<circle cx="1678.9471" cy="2962.9551" r="54.25021"/>
</g>
<g fill="none" stroke="#000" stroke-width=".666667">
<circle cx="2202.4587" cy="3003.5847" r="29.012951"/>
<circle cx="2201.812" cy="2929.8428" r="100.97713"/>
<circle cx="2114.6716" cy="3080.8679" r="89.769218"/>
<circle cx="2288.8921" cy="3077.1628" r="86.327179"/>
</g>
<g fill="none" stroke="#000" stroke-width=".666667">
<circle cx="2581.8093" cy="3058.3574" r="68.529289"/>
<circle cx="2493.5745" cy="3019.9993" r="68.915375"/>
<circle cx="2627.616" cy="2941.9087" r="69.228539"/>
<circle cx="2705.5911" cy="3040.7466" r="69.282303"/>
</g>
<g fill="none" stroke="#000" stroke-width=".666667">
<circle cx="2975.875" cy="2906.5034" r="81.801064"/>
<circle cx="2905.552" cy="3019.957" r="79.62619"/>
<circle cx="3090.4451" cy="2979.0259" r="81.877129"/>
<circle cx="3017.0808" cy="3093.3335" r="81.719902"/>
</g>
<g fill="none" stroke="#000" stroke-width=".666667">
<circle cx="3320.7024" cy="2999.2715" r="95.961639"/>
<circle cx="3400.2856" cy="3022.6482" r="27.652639"/>
<circle cx="3479.3586" cy="2998.3579" r="95.570969"/>
<circle cx="3400.272" cy="3010.5881" r="18.07135"/>
</g>
<g fill="none" stroke="#000" stroke-width=".666667">
<circle cx="3871.5676" cy="2996.4419" r="103.33524"/>
<circle cx="3777.3086" cy="2984.0439" r="56.25499"/>
<circle cx="3727.9998" cy="3002.9126" r="103.23727"/>
<circle cx="3794.3591" cy="3010.7312" r="30.605976"/>
</g>
<g fill="none" stroke="#000" stroke-width=".666667">
<circle cx="4267.2334" cy="3012.1487" r="107.72285"/>
<circle cx="4184.9453" cy="2997.3442" r="70.179596"/>
<circle cx="4133.2529" cy="2988.1221" r="108.5118"/>
<circle cx="4215.5024" cy="3002.8364" r="69.808731"/>
</g>
<g fill="none" stroke="#000" stroke-width=".666667">
<circle cx="4654.9917" cy="3045.2842" r="119.92497"/>
<circle cx="4597.4819" cy="2951.2168" r="120.43452"/>
<circle cx="4598.8828" cy="3015.2527" r="69.051376"/>
<circle cx="4544.4482" cy="3047.7708" r="119.67"/>
</g>
<g fill="none" stroke="#000" stroke-width=".666667">
<circle cx="4983.5063" cy="2945.906" r="103.96267"/>
<circle cx="5056.7124" cy="3000.9504" r="118.35329"/>
<circle cx="5077.6299" cy="2990.0522" r="47.261059"/>
<circle cx="4912.8589" cy="3068.8127" r="88.048119"/>
</g>
<g fill="none" stroke="#000" stroke-width=".667">
<circle cx="449.27438" cy="3346.9734" r="7.7214661"/>
<circle cx="464.04346" cy="3289.7092" r="65.033409"/>
<circle cx="514.42877" cy="3352.7822" r="59.519768"/>
<circle cx="353.30264" cy="3446.3767" r="128.63741"/>
</g>
<g fill="none" stroke="#000" stroke-width=".666667">
<circle cx="805.49927" cy="3324.6184" r="93.836784"/>
<circle cx="804.94519" cy="3337.2141" r="94.828613"/>
<circle cx="885.31445" cy="3477.689" r="89.770126"/>
<circle cx="715.77765" cy="3472.7141" r="90.855003"/>
</g>
<g fill="none" stroke="#000" stroke-width=".666667">
<circle cx="1119.3763" cy="3451.1541" r="85.463516"/>
<circle cx="1201.3339" cy="3490.4883" r="84.516647"/>
<circle cx="1279.1106" cy="3444.8545" r="85.331131"/>
<circle cx="1193.8408" cy="3309.9146" r="85.230492"/>
</g>
<g fill="none" stroke="#000" stroke-width=".666667">
<circle cx="1636.4033" cy="3412.0015" r="71.85714"/>
<circle cx="1712.0085" cy="3454.3674" r="62.799782"/>
<circle cx="1547.8011" cy="3374.7842" r="71.907845"/>
<circle cx="1479.3099" cy="3336.573" r="54.577618"/>
</g>
<g fill="none" stroke="#000" stroke-width=".666667">
<circle cx="2021.3727" cy="3370.1213" r="84.412392"/>
<circle cx="1982.7468" cy="3430.1218" r="84.195618"/>
<circle cx="2092.7981" cy="3459.3826" r="82.210976"/>
<circle cx="1908.9502" cy="3340.9468" r="84.05732"/>
</g>
<g fill="none" stroke="#000" stroke-width=".666667">
<circle cx="2484.1746" cy="3467.999" r="90.864876"/>
<circle cx="2402.7576" cy="3330.7815" r="90.907417"/>
<circle cx="2402.928" cy="3330.8235" r="79.663063"/>
<circle cx="2314.9888" cy="3463.0352" r="90.187141"/>
</g>
<g fill="none" stroke="#000" stroke-width=".666667">
<circle cx="2879.499" cy="3445.5215" r="87.694603"/>
<circle cx="2720.5291" cy="3454.3262" r="87.597679"/>
<circle cx="2772.5784" cy="3508.3745" r="66.508247"/>
<circle cx="2792.197" cy="3312.3989" r="87.567879"/>
</g>
<g fill="none" stroke="#000" stroke-width=".666667">
<circle cx="3259.9185" cy="3450.3391" r="115.22587"/>
<circle cx="3215.0081" cy="3383.6704" r="149.74588"/>
<circle cx="3108.707" cy="3405.2363" r="83.896149"/>
<circle cx="3261.2869" cy="3335.0857" r="41.345524"/>
</g>
<g fill="none" stroke="#000" stroke-width=".666667">
<circle cx="3650.0149" cy="3398.5244" r="74.706001"/>
<circle cx="3549.7712" cy="3400.4292" r="124.82507"/>
<circle cx="3549.7141" cy="3400.1995" r="75.384354"/>
<circle cx="3650.4524" cy="3398.4976" r="124.55885"/>
</g>
<g fill="none" stroke="#000" stroke-width=".666667">
<circle cx="3987.1812" cy="3401.4741" r="83.910217"/>
<circle cx="4031.5161" cy="3397.2849" r="54.932732"/>
<circle cx="4091.2576" cy="3391.6018" r="83.834686"/>
<circle cx="3908.74" cy="3407.4502" r="83.808273"/>
</g>
<g fill="none" stroke="#000" stroke-width=".666667">
<circle cx="4347.584" cy="3377.6616" r="122.72856"/>
<circle cx="4450.0073" cy="3419.6064" r="124.93827"/>
<circle cx="4471.1641" cy="3372.4065" r="38.416245"/>
<circle cx="4427.2173" cy="3471.0481" r="34.362774"/>
</g>
<g fill="none" stroke="#000" stroke-width=".666667">
<circle cx="4721.5884" cy="3401.2407" r="96.589523"/>
<circle cx="4826.3291" cy="3398.4727" r="109.57832"/>
<circle cx="4876.6904" cy="3397.5383" r="98.402618"/>
<circle cx="4773.8828" cy="3399.7505" r="109.24945"/>
</g>
<g fill="none" stroke="#000" stroke-width=".666667">
<circle cx="2743.0188" cy="4150.1538" r="145.8709"/>
<circle cx="2786.3025" cy="4110.0806" r="46.488201"/>
<circle cx="2657.2581" cy="4150.9551" r="40.876099"/>
<circle cx="2745.4221" cy="4207.0571" r="48.891602"/>
</g>
<g fill="none" stroke="#000" stroke-width=".666667">
<circle cx="3313.5151" cy="4139.8862" r="121.3236"/>
<circle cx="3289.5193" cy="4155.8818" r="31.995899"/>
<circle cx="3288.1836" cy="4147.8862" r="55.994598"/>
<circle cx="3152.73" cy="4230.3335" r="51.993999"/>
</g>
<g fill="none" stroke="#000" stroke-width=".666667">
<circle cx="3780.0222" cy="4150.1538" r="134.3166"/>
<circle cx="3723.9319" cy="4167.8691" r="35.424702"/>
<circle cx="3722.4578" cy="4159.0073" r="61.993301"/>
<circle cx="3842.0142" cy="4138.3457" r="35.426102"/>
</g>
<g fill="none" stroke="#000">
<circle cx="4741.4771" cy="4157.0425" r="141.5437" stroke-width=".666667"/>
<circle cx="4741.4771" cy="4157.0425" r="42.127029" stroke-width=".66666667"/>
<circle cx="4741.4771" cy="4157.0425" r="73.727753" stroke-width=".66666667"/>
<circle cx="4741.4771" cy="4157.0425" r="107.95712" stroke-width=".66666667"/>
</g>
<g fill="none" stroke="#000" stroke-width=".666667">
<circle cx="4264.9727" cy="4150.0752" r="139.88651"/>
<circle cx="4217.5352" cy="4193.8057" r="35.491001"/>
<circle cx="4250.7212" cy="4164.7139" r="96.769897"/>
<circle cx="4279.2798" cy="4137.8989" r="28.885201"/>
</g>
<g fill="none" stroke="#000">
<circle cx="442.08023" cy="4529.0044" r="67.800171" stroke-width=".723656"/>
<circle cx="279.29584" cy="4576.9653" r="67.800163" stroke-width=".72368"/>
<circle cx="192.43826" cy="4576.9653" r="67.800163" stroke-width=".72368"/>
<circle cx="402.22318" cy="4693.9585" r="67.800171" stroke-width=".723656"/>
</g>
<g fill="none" stroke="#000" stroke-width=".742092">
<circle transform="rotate(42.08246)" cx="4216.6646" cy="2336.1177" r="67.790955"/>
<circle transform="rotate(42.08246)" cx="4137.4536" cy="2336.1177" r="67.790955"/>
<circle cx="1429.912" cy="4642.3857" r="67.790955"/>
<circle cx="1350.7014" cy="4642.3857" r="67.790955"/>
</g>
<g fill="none" stroke="#000">
<circle cx="1057.3293" cy="4567.9951" r="127.12416" stroke-width="1.09325"/>
<circle transform="rotate(63.450489)" cx="4601.1899" cy="1328.9379" r="67.766914" stroke-width=".790177"/>
<circle transform="rotate(63.450489)" cx="4525.8086" cy="1328.9379" r="67.766914" stroke-width=".790177"/>
<circle cx="1057.3293" cy="4567.9951" r="69.711113" stroke-width="1.09325"/>
</g>
<g fill="none" stroke="#000" stroke-width=".666667">
<circle cx="2106.0847" cy="4596.4409" r="112.6578"/>
<circle cx="2138.271" cy="4597.7783" r="48.279499"/>
<circle cx="2092.0027" cy="4579.6753" r="48.952999"/>
<circle cx="1942.4111" cy="4686.7305" r="51.9939"/>
</g>
<g fill="none" stroke="#000" stroke-width=".666667">
<circle cx="2565.3704" cy="4610.8838" r="138.65511"/>
<circle cx="2604.9827" cy="4591.2012" r="59.423401"/>
<circle cx="2548.0388" cy="4568.9189" r="60.250599"/>
<circle cx="2534.0923" cy="4688.2217" r="34.129902"/>
</g>
<g fill="none" stroke="#000" stroke-width=".666667">
<circle cx="3085.3164" cy="4596.4409" r="106.8807"/>
<circle cx="3115.8513" cy="4597.7148" r="45.806999"/>
<circle cx="3071.9568" cy="4580.5371" r="46.441601"/>
<circle cx="3066.5393" cy="4612.3281" r="154.53889"/>
</g>
<g fill="none" stroke="#000" stroke-width=".666667">
<circle cx="2058.1084" cy="5114.2773" r="99.833298"/>
<circle cx="2165.1414" cy="5087.4053" r="120.6317"/>
<circle cx="2104.0198" cy="5131.2983" r="30.3076"/>
<circle cx="2020.0476" cy="4951.5894" r="32.017799"/>
</g>
<g fill="none" stroke="#000" stroke-width=".666667">
<circle cx="3123.9978" cy="5091.1685" r="99.833298"/>
<circle cx="3231.031" cy="5064.2969" r="120.6318"/>
<circle cx="3169.905" cy="5108.1899" r="30.3055"/>
<circle cx="3273.6956" cy="5028.8818" r="34.556599"/>
</g>
<g fill="none" stroke="#000" stroke-width=".666667">
<circle cx="3684.0725" cy="5074.6157" r="117.7129"/>
<circle cx="3753.8655" cy="5061.4082" r="120.6318"/>
<circle cx="3733.3594" cy="5108.0654" r="33.2188"/>
<circle cx="3699.5481" cy="5027.4331" r="33.2174"/>
</g>
<g fill="none" stroke="#000" stroke-width=".666667">
<circle cx="4206.9072" cy="5074.6157" r="117.7129"/>
<circle cx="4276.7002" cy="5061.4082" r="120.6318"/>
<circle cx="4244.6382" cy="5067.6265" r="62.106098"/>
<circle cx="4254.1572" cy="5062.0962" r="33.2174"/>
</g>
<g fill="none" stroke="#000" stroke-width=".666667">
<circle cx="2602.5425" cy="5088.1841" r="72.545502"/>
<circle cx="2680.3723" cy="5068.6704" r="87.656998"/>
<circle cx="2635.9265" cy="5100.5508" r="22.021299"/>
<circle cx="2654.9167" cy="5067.2812" r="153.0981"/>
</g>
<g fill="none" stroke="#000" stroke-width=".666667">
<circle cx="4729.7422" cy="5074.6157" r="117.7129"/>
<circle cx="4799.5352" cy="5061.4082" r="120.6318"/>
<circle cx="4778.041" cy="5091.3208" r="41.066502"/>
<circle cx="4741.2793" cy="5043.9355" r="41.067902"/>
</g>
<g fill="none" stroke="#000" stroke-width=".666667">
<circle cx="3550.842" cy="4617.5708" r="122.1438"/>
<circle cx="3696.5466" cy="4581.8442" r="114.1451"/>
<circle cx="3497.9221" cy="4633.7954" r="37.077702"/>
<circle cx="3811.0183" cy="4714.3711" r="37.077702"/>
</g>
<g fill="none" stroke="#000">
<circle cx="4673.8755" cy="4571.397" r="122.1438" stroke-width=".666667"/>
<circle cx="4827.5786" cy="4571.397" r="122.12038" stroke-width=".713247"/>
<circle cx="4636.0264" cy="4571.397" r="37.077702" stroke-width=".666667"/>
<circle cx="4865.4253" cy="4571.397" r="37.079899" stroke-width=".666667"/>
</g>
<g fill="none" stroke="#000" stroke-width=".666667">
<circle cx="4163.4771" cy="4623.8208" r="81.808601"/>
<circle cx="4261.0527" cy="4599.8882" r="76.4496"/>
<circle cx="4128.0352" cy="4624.3115" r="24.8337"/>
<circle cx="4207.5786" cy="4610.3423" r="153.4267"/>
</g>
<g fill="none" stroke="#000" stroke-width=".666667">
<circle cx="859.44958" cy="5082.3672" r="122.1431"/>
<circle cx="1017.5491" cy="5046.6377" r="114.1458"/>
<circle cx="806.5354" cy="5083.0952" r="37.077801"/>
<circle cx="817.61023" cy="5084.6523" r="66.639297"/>
</g>
<g fill="none" stroke="#000" stroke-width=".666667">
<circle cx="249.8161" cy="5079.6929" r="122.1459"/>
<circle cx="407.9213" cy="5043.9639" r="114.1458"/>
<circle cx="196.9019" cy="5049.4307" r="37.080601"/>
<circle cx="266.8811" cy="5140.8555" r="38.744202"/>
</g>
<g fill="none" stroke="#000" stroke-width=".666667">
<circle cx="1470.0026" cy="5079.6929" r="122.143"/>
<circle cx="1628.1021" cy="5043.9639" r="114.1458"/>
<circle cx="1434.3621" cy="5081.9707" r="54.241501"/>
<circle cx="1480.8588" cy="5134.6553" r="44.9417"/>
</g>
<g fill="none" stroke="#000" stroke-width=".666667">
<circle cx="256.50021" cy="5574.8774" r="111.6345"/>
<circle cx="372.92529" cy="5533.0605" r="104.3249"/>
<circle cx="473.3772" cy="5626.645" r="70.435501"/>
<circle cx="555.1759" cy="5465.5186" r="43.005901"/>
</g>
<g fill="none" stroke="#000" stroke-width=".666667">
<circle cx="1412.5919" cy="5570.4375" r="112.6705"/>
<circle cx="1529.6982" cy="5528.0957" r="105.2896"/>
<circle cx="1630.748" cy="5622.8623" r="71.088501"/>
<circle cx="1364.3434" cy="5601.8281" r="41.286499"/>
</g>
<g fill="none" stroke="#000" stroke-width=".666667">
<circle cx="2572.9924" cy="5571.7559" r="111.6627"/>
<circle cx="2689.2625" cy="5529.8657" r="104.3531"/>
<circle cx="2789.5801" cy="5623.6211" r="70.453796"/>
<circle cx="2643.6316" cy="5545.0947" r="23.084"/>
</g>
<g fill="none" stroke="#000" stroke-width=".666667">
<circle cx="1995.7372" cy="5571.498" r="109.2473"/>
<circle cx="2109.4795" cy="5530.5063" r="102.095"/>
<circle cx="2207.6196" cy="5622.2515" r="68.929802"/>
<circle cx="2141.8083" cy="5503.3115" r="29.770201"/>
</g>
<g fill="none" stroke="#000" stroke-width=".666667">
<circle cx="882.89679" cy="5556.6543" r="77.223198"/>
<circle cx="963.60809" cy="5527.7969" r="72.168198"/>
<circle cx="1033.2388" cy="5592.395" r="48.723801"/>
<circle cx="948.34277" cy="5557.3823" r="166.0946"/>
</g>
<g fill="none" stroke="#000" stroke-width=".666667">
<circle cx="4885.6973" cy="5570.415" r="103.2064"/>
<circle cx="4788.3604" cy="5516.2539" r="85.295197"/>
<circle cx="4875.3335" cy="5576.8589" r="53.787998"/>
<circle cx="4742.8081" cy="5647.3613" r="38.118"/>
</g>
<g fill="none" stroke="#000" stroke-width=".666667">
<circle cx="307.94479" cy="6019.1011" r="96.846703"/>
<circle cx="223.7681" cy="5997.9204" r="63.987598"/>
<circle cx="289.37061" cy="6043.1436" r="40.3535"/>
<circle cx="283.5018" cy="6014.2578" r="142.15581"/>
</g>
<g fill="none" stroke="#000" stroke-width=".666667">
<circle cx="859.56238" cy="6014.1841" r="129.7404"/>
<circle cx="770.9809" cy="5985.6606" r="85.719704"/>
<circle cx="837.16461" cy="6053.6201" r="54.0588"/>
<circle cx="916.34692" cy="5969.0557" r="38.3055"/>
</g>
<g fill="none" stroke="#000" stroke-width=".666667">
<circle cx="1451.9673" cy="6025.5537" r="120.5344"/>
<circle cx="1341.1556" cy="5979.0601" r="96.952499"/>
<circle cx="1442.6118" cy="6024.9048" r="60.090599"/>
<circle cx="1294.4601" cy="5962.332" r="29.4804"/>
</g>
<g fill="none" stroke="#000" stroke-width=".666667">
<circle cx="2020.2549" cy="6014.7598" r="126.435"/>
<circle cx="1911.2643" cy="5986.8794" r="83.539902"/>
<circle cx="2020.3918" cy="6023.2012" r="76.382599"/>
<circle cx="2031.8558" cy="6044.2974" r="30.433901"/>
</g>
<g fill="none" stroke="#000" stroke-width=".666667">
<circle cx="2582.3069" cy="6011.8501" r="138.8512"/>
<circle cx="2492.5916" cy="5996.4409" r="91.740196"/>
<circle cx="2570.9685" cy="6069.2026" r="57.855"/>
<circle cx="2494.0979" cy="5981.1797" r="33.4268"/>
</g>
<g fill="none" stroke="#000" stroke-width=".666667">
<circle cx="3157.6597" cy="6011.8501" r="141.4796"/>
<circle cx="3085.9597" cy="6013.2563" r="110.533"/>
<circle cx="3156.5327" cy="6045.7344" r="86.754997"/>
<circle cx="3129.5706" cy="6021.7173" r="34.059399"/>
</g>
<g transform="translate(-1864.4625,85.462233)" fill="none" stroke="#000" stroke-width=".666667">
<circle cx="3374.7961" cy="6428.7378" r="130.8244"/>
<circle cx="3218.502" cy="6367.2578" r="94.752899"/>
<circle cx="3298.9707" cy="6410.7969" r="132.0331"/>
<circle cx="3110.1797" cy="6523.0625" r="48.1539"/>
</g>
<g fill="none" stroke="#000">
<circle cx="3782.1736" cy="6037.7134" r="96.070198" stroke-width=".666667"/>
<circle cx="3654.3726" cy="6039.999" r="96.062073" stroke-width=".682856"/>
<circle cx="3718.2732" cy="6038.856" r="96.110191" stroke-width=".586624"/>
<circle cx="3718.2732" cy="6038.856" r="181.3119" stroke-width=".666667"/>
</g>
<g fill="none" stroke="#000">
<circle cx="4939.374" cy="6006.3877" r="96.118874" stroke-width=".569252"/>
<circle cx="4776.5874" cy="6006.3877" r="126.4922" stroke-width=".666667"/>
<circle cx="4864.2568" cy="6006.3877" r="96.088058" stroke-width=".630877"/>
<circle cx="4711.3965" cy="6006.3877" r="42.939602" stroke-width=".666667"/>
</g>
<g transform="translate(2913.1795,-1351.6937)" fill="none" stroke="#000" stroke-width=".666667">
<circle cx="363.33569" cy="6930.4932" r="120.9794"/>
<circle cx="199.5253" cy="6930.4893" r="118.1007"/>
<circle cx="277.84311" cy="6929.771" r="137.5423"/>
<circle cx="196.17841" cy="6930.8838" r="34.460701"/>
</g>
<g fill="none" stroke="#000" stroke-width=".666667">
<circle cx="4367.9258" cy="6051.1206" r="95.434196"/>
<circle cx="4204.7837" cy="6050.4087" r="100.2071"/>
<circle cx="4283.9683" cy="6008.5073" r="147.60719"/>
<circle cx="4283.9683" cy="5923.7959" r="36.982601"/>
</g>
<g transform="translate(2913.1795,-1351.6937)" fill="none" stroke="#000" stroke-width=".666667">
<circle cx="902.64868" cy="6923.3257" r="126.1706"/>
<circle cx="781.1925" cy="6923.3296" r="123.1657"/>
<circle cx="841.6554" cy="6922.5737" r="143.4408"/>
<circle cx="839.953" cy="6921.4058" r="35.9361"/>
</g>
<g fill="none" stroke="#000" stroke-width=".666667">
<circle cx="4328.0352" cy="5433.752" r="49.488899"/>
<circle cx="4328.0352" cy="5603.5078" r="77.895203"/>
<circle cx="4246.9814" cy="5606.7969" r="128.5074"/>
<circle cx="4409.0894" cy="5605.1538" r="128.50681"/>
</g>
<g transform="translate(-4232.4345,-1051.1276)" fill="none" stroke="#000" stroke-width=".666667">
<circle cx="4518.5352" cy="7524.147" r="187.55521"/>
<circle cx="4460.23" cy="7520.813" r="94.008102"/>
<circle cx="4519.8403" cy="7518.4087" r="56.9837"/>
<circle cx="4578.77" cy="7519.6128" r="94.006897"/>
</g>
<g fill="none" stroke="#000" stroke-width=".666667">
<circle transform="rotate(90)" cx="6497.9834" cy="-979.43604" r="42.001099"/>
<circle transform="rotate(90)" cx="6497.9834" cy="-924.03711" r="134.73351"/>
<circle transform="rotate(90)" cx="6501.4263" cy="-838.44678" r="81.667297"/>
<circle transform="rotate(90)" cx="6499.7046" cy="-753.82617" r="134.7355"/>
</g>
<g transform="translate(921.48931,-2529.967)" fill="none" stroke="#000" stroke-width=".666667">
<circle cx="1705.9032" cy="9051.1562" r="116.1748"/>
<circle cx="1622.9761" cy="9051.1562" r="116.1741"/>
<circle cx="1665.9175" cy="8962.1943" r="116.1786"/>
<circle cx="1665.0638" cy="9011.5488" r="32.525879"/>
</g>
<g fill="none" stroke="#000" stroke-width=".666667">
<circle cx="1927.9022" cy="6548.5024" r="83.6306"/>
<circle cx="2082.5779" cy="6548.5024" r="83.6306"/>
<circle cx="2005.24" cy="6413.3755" r="83.630798"/>
<circle cx="2005.24" cy="6499.5884" r="189.7952"/>
</g>
<g fill="none" stroke="#000" stroke-width=".666667">
<circle cx="992.47443" cy="4062.7056" r="74.223999"/>
<circle cx="820.60071" cy="4172.7139" r="62.807899"/>
<circle cx="801.50018" cy="4172.7139" r="95.159203"/>
<circle cx="1087.9573" cy="4233.4062" r="74.224602"/>
</g>
<g fill="none" stroke="#000" stroke-width=".666667">
<circle cx="1631.1295" cy="4117.4531" r="67.462898"/>
<circle cx="1475.6469" cy="4217.9038" r="57.0835"/>
<circle cx="1458.3715" cy="4217.9038" r="86.488503"/>
<circle cx="1644.95" cy="4103.5947" r="108.9781"/>
</g>
<g fill="none" stroke="#000" stroke-width=".666667">
<circle cx="2100.7776" cy="4148.0557" r="136.8952"/>
<circle cx="2146.8376" cy="4153.2993" r="54.909"/>
<circle cx="2031.3052" cy="4151.0542" r="52.650002"/>
<circle cx="2312.9729" cy="4078.3816" r="54.907398"/>
</g>
<g fill="none" stroke="#000">
<circle transform="rotate(90)" cx="6572.3848" cy="-3269.3931" r="155.0143" stroke-width=".666667"/>
<circle transform="rotate(90)" cx="6572.3848" cy="-3028.6597" r="154.99086" stroke-width=".713267"/>
<circle transform="rotate(90)" cx="6572.3848" cy="-3189.4631" r="95.213165" stroke-width=".833831"/>
<circle transform="rotate(90)" cx="6573.4912" cy="-3229.3035" r="42.936077" stroke-width="1.08108"/>
</g>
<g transform="rotate(90,3751.3699,6573.7118)" fill="none" stroke="#000" stroke-width=".666667">
<circle cx="3751.3699" cy="6495.376" r="150.37"/>
<circle cx="3750.4797" cy="6661.896" r="140.52161"/>
<circle cx="3751.4622" cy="6581.5605" r="86.036201"/>
<circle cx="3751.4622" cy="6581.5605" r="50.609001"/>
</g>
<g fill="none" stroke="#000" stroke-width=".666667">
<circle transform="rotate(-90)" cx="-6574.7559" cy="4208.5923" r="157.62399"/>
<circle transform="rotate(-90)" cx="-6578.4292" cy="4403.6826" r="150.2585"/>
<circle transform="rotate(-90)" cx="-6617.6787" cy="4309.0903" r="61.9142"/>
<circle transform="rotate(-90)" cx="-6514.2236" cy="4309.9346" r="27.182501"/>
</g>
<g transform="translate(457.84268,-93.217535)" fill="none" stroke="#000">
<circle cx="-229.19868" cy="4328.2178" r="96.319801" stroke-width=".666667"/>
<circle cx="-50.597244" cy="4328.2178" r="96.319801" stroke-width=".666667"/>
<circle cx="-140.51375" cy="4172.9897" r="96.319801" stroke-width=".666667"/>
<circle cx="-320.38898" cy="4171.6187" r="67.699348" stroke-width=".747231"/>
</g>
<g transform="translate(-2029.1289,-249.11673)" fill="none" stroke="#000" stroke-width=".666667">
<circle cx="2203.6208" cy="7425.7144" r="98.688797"/>
<circle cx="2385.8743" cy="7425.7144" r="98.688797"/>
<circle cx="2294.1191" cy="7266.019" r="98.688797"/>
<circle cx="2185.6016" cy="7452.0195" r="36.837002"/>
</g>
<g fill="none" stroke="#000">
<circle transform="scale(-1)" cx="-726.15784" cy="-7187.8149" r="134.3208" stroke-width=".666667"/>
<circle transform="scale(-1)" cx="-916.17542" cy="-7187.8149" r="134.3208" stroke-width=".666667"/>
<circle transform="scale(-1)" cx="-821.16663" cy="-6978.7617" r="104.28436" stroke-width=".438817"/>
<circle transform="scale(-1)" cx="-821.16663" cy="-7187.8149" r="36.484043" stroke-width=".86361"/>
</g>
<g fill="none" stroke="#000" stroke-width=".66666667">
<circle cx="1422.4504" cy="7164.2168" r="91.878593"/>
<circle cx="1600.5485" cy="7169.7056" r="91.878464"/>
<circle cx="1516.4696" cy="7012.9653" r="91.878555"/>
<circle cx="1512.8087" cy="7116.5249" r="7.932097"/>
</g>
<g transform="translate(-516.71575,-678.99739)" fill="none" stroke="#000" stroke-width=".666667">
<circle cx="2670.4783" cy="7857.6729" r="116.1767"/>
<circle cx="2522.5752" cy="7857.6729" r="116.1767"/>
<circle cx="2598.0078" cy="7736.2437" r="116.1741"/>
<circle cx="2798.583" cy="7686.562" r="47.094898"/>
</g>
<g transform="translate(-516.71575,-678.99739)" fill="none" stroke="#000" stroke-width=".666667">
<circle cx="3287.1157" cy="7857.6729" r="116.1767"/>
<circle cx="3139.2112" cy="7857.6729" r="116.1786"/>
<circle cx="3214.6399" cy="7736.2437" r="116.1741"/>
<circle cx="3106.5796" cy="7889.5" r="38.973701"/>
</g>
<g transform="translate(-516.71575,-678.99739)" fill="none" stroke="#000" stroke-width=".666667">
<circle cx="3873.4131" cy="7857.6729" r="116.1786"/>
<circle cx="3725.5073" cy="7857.6729" r="116.1773"/>
<circle cx="3768.4512" cy="7768.7158" r="116.1767"/>
<circle cx="3728.6138" cy="7788.8403" r="32.479801"/>
</g>
<g transform="translate(-516.71575,-678.99739)" fill="none" stroke="#000" stroke-width=".666667">
<circle cx="4375.7544" cy="7828.835" r="86.746399"/>
<circle cx="4265.3145" cy="7828.835" r="86.745201"/>
<circle cx="4321.6357" cy="7738.167" r="86.744499"/>
<circle cx="4320.998" cy="7799.2598" r="181.88451"/>
</g>
<g fill="none" stroke="#000" stroke-width=".666667">
<circle transform="rotate(-53.802449)" cx="-3490.1899" cy="2392.2041" r="67.826096"/>
<circle transform="rotate(-53.802449)" cx="-3424.6108" cy="2243.1123" r="68.740448"/>
<circle transform="rotate(-53.802449)" cx="-3587.2727" cy="2261.5356" r="68.652145"/>
<circle transform="rotate(-53.802449)" cx="-3521.9546" cy="2111.7524" r="68.444923"/>
</g>
</svg>
